<svg width="169" height="39" viewBox="0 0 169 39" fill="none" xmlns="http://www.w3.org/2000/svg">
<path d="M32.0625 29.3301C32.0625 29.4863 32.0039 29.5938 31.8867 29.6523C31.7891 29.7109 31.7695 29.8477 31.8281 30.0625C31.6719 30.082 31.5352 30.1602 31.418 30.2969C31.3008 30.4336 31.1641 30.502 31.0078 30.502C30.9102 30.502 30.832 30.4531 30.7734 30.3555C30.7344 30.4922 30.6562 30.5898 30.5391 30.6484C30.4414 30.707 30.334 30.7559 30.2168 30.7949C30.0996 30.834 29.9824 30.8828 29.8652 30.9414C29.748 31 29.6699 31.0879 29.6309 31.2051H29.4844C29.25 31.2051 29.0645 31.3027 28.9277 31.498C28.8105 31.6934 28.6641 31.791 28.4883 31.791C28.4297 31.791 28.3906 31.7812 28.3711 31.7617C28.2734 31.7812 28.2344 31.8398 28.2539 31.9375C28.2734 32.0547 28.2441 32.1328 28.166 32.1719H28.0195C27.5117 32.1719 26.9941 32.2793 26.4668 32.4941C25.9395 32.709 25.4023 32.9531 24.8555 33.2266C24.3281 33.5 23.7812 33.7539 23.2148 33.9883C22.668 34.2422 22.1113 34.4082 21.5449 34.4863C21.4277 34.6035 21.2812 34.6914 21.1055 34.75C20.9492 34.8281 20.7734 34.8867 20.5781 34.9258C20.3828 34.9648 20.1875 35.0039 19.9922 35.043C19.8164 35.1016 19.6602 35.1895 19.5234 35.3066C19.0352 35.3457 18.5469 35.4336 18.0586 35.5703C17.5703 35.707 17.082 35.834 16.5938 35.9512C16.125 36.0879 15.6367 36.1953 15.1289 36.2734C14.6406 36.3711 14.1426 36.4004 13.6348 36.3613C13.4785 36.4785 13.3027 36.5664 13.1074 36.625C12.9316 36.7031 12.7656 36.8008 12.6094 36.918C11.8086 36.8008 11.0078 36.7129 10.207 36.6543C9.42578 36.5957 8.6543 36.459 7.89258 36.2441C7.89258 36.1855 7.87305 36.1465 7.83398 36.127C7.79492 36.1074 7.74609 36.0879 7.6875 36.0684C7.64844 36.0684 7.60938 36.0488 7.57031 36.0098C7.53125 35.9902 7.53125 35.9414 7.57031 35.8633C7.39453 35.9219 7.23828 35.9512 7.10156 35.9512C6.90625 35.9512 6.71094 35.9023 6.51562 35.8047C6.33984 35.707 6.14453 35.5996 5.92969 35.4824C5.73438 35.3652 5.5293 35.248 5.31445 35.1309C5.09961 35.0332 4.86523 34.9844 4.61133 34.9844C4.45508 34.8281 4.30859 34.6719 4.17188 34.5156C4.05469 34.3594 3.9668 34.1641 3.9082 33.9297C3.83008 33.9102 3.74219 33.9102 3.64453 33.9297C3.56641 33.9492 3.49805 33.959 3.43945 33.959C3.32227 33.959 3.26367 33.9199 3.26367 33.8418C2.85352 33.5488 2.56055 33.2363 2.38477 32.9043C2.20898 32.5723 2.01367 32.1914 1.79883 31.7617C1.74023 31.625 1.66211 31.5078 1.56445 31.4102C1.48633 31.332 1.42773 31.2344 1.38867 31.1172C1.31055 30.9219 1.26172 30.7168 1.24219 30.502C1.22266 30.2871 1.20312 30.082 1.18359 29.8867C1.18359 29.6719 1.1543 29.4668 1.0957 29.2715C1.05664 29.0566 0.96875 28.8613 0.832031 28.6855C0.871094 27.9434 0.949219 27.2012 1.06641 26.459C1.20312 25.7168 1.36914 24.9746 1.56445 24.2324C1.64258 23.9004 1.73047 23.5781 1.82812 23.2656C1.92578 22.9531 2.01367 22.6309 2.0918 22.2988C2.11133 22.1816 2.14062 22.1035 2.17969 22.0645C2.23828 22.0059 2.28711 21.9668 2.32617 21.9473L2.44336 21.8594C2.48242 21.8203 2.51172 21.7617 2.53125 21.6836L2.76562 20.6875C2.92188 20.043 3.12695 19.418 3.38086 18.8125C3.63477 18.207 3.97656 17.6504 4.40625 17.1426C4.44531 16.6543 4.55273 16.1953 4.72852 15.7656C4.92383 15.3164 5.13867 14.8867 5.37305 14.4766C5.60742 14.0469 5.8418 13.627 6.07617 13.2168C6.31055 12.8066 6.49609 12.3672 6.63281 11.8984L6.60352 11.8398C6.60352 11.7617 6.64258 11.7227 6.7207 11.7227C6.81836 11.7031 6.88672 11.6934 6.92578 11.6934C6.94531 11.3809 7.01367 11.1172 7.13086 10.9023C7.26758 10.668 7.4043 10.4531 7.54102 10.2578C7.69727 10.0625 7.83398 9.85742 7.95117 9.64258C8.08789 9.4082 8.16602 9.13477 8.18555 8.82227C8.55664 8.60742 8.86914 8.34375 9.12305 8.03125C9.39648 7.69922 9.65039 7.36719 9.88477 7.03516C10.1387 6.68359 10.4023 6.35156 10.6758 6.03906C10.9492 5.70703 11.2812 5.44336 11.6719 5.24805C11.7695 5.13086 11.7988 4.96484 11.7598 4.75C12.3652 4.30078 12.9902 3.90039 13.6348 3.54883C14.2793 3.19727 14.8848 2.78711 15.4512 2.31836H16.5059C16.7598 2.12305 17.043 2.02539 17.3555 2.02539C17.5898 2.02539 17.8145 2.07422 18.0293 2.17188C18.2637 2.26953 18.4785 2.38672 18.6738 2.52344C18.8887 2.64062 19.1035 2.76758 19.3184 2.9043C19.5332 3.02148 19.748 3.10938 19.9629 3.16797C20.1777 3.46094 20.3242 3.80273 20.4023 4.19336C20.5 4.56445 20.5977 4.91602 20.6953 5.24805C20.5195 5.77539 20.4121 6.32227 20.373 6.88867C20.334 7.43555 20.2656 7.98242 20.168 8.5293C20.0312 8.68555 19.9141 8.86133 19.8164 9.05664C19.7188 9.23242 19.6113 9.41797 19.4941 9.61328C19.3965 9.78906 19.2891 9.96484 19.1719 10.1406C19.0547 10.2969 18.8984 10.4238 18.7031 10.5215C18.5469 11.0879 18.3027 11.5371 17.9707 11.8691C17.6387 12.2012 17.3164 12.5918 17.0039 13.041C16.7109 13.2363 16.3984 13.334 16.0664 13.334C15.793 13.334 15.5488 13.2754 15.334 13.1582C15.1191 13.0215 14.9238 12.8555 14.748 12.6602C14.5723 12.4453 14.4258 12.2207 14.3086 11.9863C14.2109 11.7324 14.1328 11.4883 14.0742 11.2539C14.2109 10.8438 14.4258 10.4922 14.7188 10.1992C15.0312 9.90625 15.3438 9.61328 15.6562 9.32031C15.9688 9.02734 16.2422 8.71484 16.4766 8.38281C16.7109 8.05078 16.8281 7.65039 16.8281 7.18164C16.8281 7.14258 16.8184 7.10352 16.7988 7.06445C16.7988 7.02539 16.7988 6.98633 16.7988 6.94727C16.7988 6.86914 16.8281 6.80078 16.8867 6.74219C16.9453 6.68359 17.0039 6.63477 17.0625 6.5957L17.2383 6.44922C17.2969 6.39062 17.3262 6.32227 17.3262 6.24414C17.3262 6.16602 17.2871 6.08789 17.209 6.00977C16.4668 6.06836 15.9004 6.19531 15.5098 6.39062C15.1387 6.58594 14.8457 6.80078 14.6309 7.03516C14.416 7.26953 14.2207 7.50391 14.0449 7.73828C13.8887 7.95313 13.6543 8.10938 13.3418 8.20703C13.2832 8.36328 13.1953 8.5 13.0781 8.61719C12.9805 8.71484 12.873 8.82227 12.7559 8.93945C12.6387 9.03711 12.5312 9.1543 12.4336 9.29102C12.3555 9.42773 12.3066 9.59375 12.2871 9.78906H11.7598C11.6816 9.96484 11.5645 10.1406 11.4082 10.3164C11.2715 10.4727 11.125 10.6289 10.9688 10.7852C10.832 10.9414 10.7051 11.1172 10.5879 11.3125C10.4902 11.4883 10.4609 11.6836 10.5 11.8984C10.2852 11.9766 10.1191 12.1035 10.002 12.2793C9.9043 12.4551 9.75781 12.6016 9.5625 12.7188V12.8945C9.5625 13.0508 9.5332 13.1973 9.47461 13.334C9.41602 13.4707 9.40625 13.6172 9.44531 13.7734C9.21094 13.9883 9.03516 14.2617 8.91797 14.5938C8.82031 14.9062 8.71289 15.1992 8.5957 15.4727C8.32227 15.6094 8.13672 15.7949 8.03906 16.0293C7.94141 16.2637 7.89258 16.5371 7.89258 16.8496C7.59961 17.1426 7.33594 17.4844 7.10156 17.875C6.86719 18.2656 6.65234 18.666 6.45703 19.0762C6.28125 19.4863 6.11523 19.9062 5.95898 20.3359C5.80273 20.7656 5.63672 21.166 5.46094 21.5371V22.3867C5.1875 22.6992 4.99219 23.0703 4.875 23.5C4.77734 23.9102 4.62109 24.2812 4.40625 24.6133C4.36719 24.8281 4.34766 25.043 4.34766 25.2578C4.36719 25.4727 4.37695 25.6875 4.37695 25.9023C4.37695 26.1367 4.35742 26.3809 4.31836 26.6348C4.2793 26.8887 4.21094 27.123 4.11328 27.3379C4.19141 27.6309 4.25 27.9824 4.28906 28.3926C4.32812 28.7832 4.39648 29.1836 4.49414 29.5938C4.5918 29.9844 4.72852 30.3457 4.9043 30.6777C5.08008 30.9902 5.33398 31.2051 5.66602 31.3223C5.74414 31.752 5.92969 32.0742 6.22266 32.2891C6.53516 32.5234 6.88672 32.709 7.27734 32.8457C7.66797 32.9824 8.06836 33.0996 8.47852 33.1973C8.88867 33.3145 9.25 33.4609 9.5625 33.6367C9.67969 33.5781 9.81641 33.5488 9.97266 33.5488C10.1289 33.5488 10.2656 33.5684 10.3828 33.6074C10.5195 33.6465 10.666 33.6855 10.8223 33.7246C11.0957 33.6855 11.4277 33.666 11.8184 33.666C12.2285 33.666 12.6387 33.6465 13.0488 33.6074C13.459 33.5879 13.8398 33.5391 14.1914 33.4609C14.543 33.3828 14.8262 33.2363 15.041 33.0215C15.1777 33.0215 15.2656 33.0605 15.3047 33.1387C15.3633 33.2168 15.4609 33.2559 15.5977 33.2559C15.7344 33.2559 15.9395 33.2168 16.2129 33.1387C16.4863 33.0801 16.7695 33.002 17.0625 32.9043C17.3555 32.8262 17.6289 32.7383 17.8828 32.6406C18.1562 32.543 18.3516 32.4551 18.4688 32.377C18.5273 32.3965 18.5859 32.4062 18.6445 32.4062H18.8496C19.123 32.4062 19.377 32.3574 19.6113 32.2598C19.8457 32.1621 20.0996 32.1328 20.373 32.1719C21.2715 31.7227 22.1797 31.332 23.0977 31C24.0352 30.6875 24.9824 30.4043 25.9395 30.1504C26.0566 29.9746 26.1934 29.8477 26.3496 29.7695C26.5254 29.6914 26.7109 29.6328 26.9062 29.5938C27.1016 29.5352 27.2969 29.4961 27.4922 29.4766C27.6875 29.4375 27.873 29.3887 28.0488 29.3301C28.166 29.2715 28.2637 29.2031 28.3418 29.125C28.4395 29.0273 28.5566 28.9492 28.6934 28.8906C28.8301 28.832 28.9766 28.793 29.1328 28.7734C29.3086 28.7539 29.4746 28.7344 29.6309 28.7148C29.8066 28.6758 29.9629 28.627 30.0996 28.5684C30.2559 28.5098 30.3828 28.4121 30.4805 28.2754C30.7539 28.3926 31.0273 28.5195 31.3008 28.6562C31.5938 28.793 31.8379 28.9883 32.0332 29.2422L32.0625 29.3301ZM45.9199 17.3184C45.8418 17.5137 45.7637 17.6992 45.6855 17.875C45.6074 18.0508 45.5488 18.2461 45.5098 18.4609C45.373 18.5586 45.2168 18.6367 45.041 18.6953C44.8848 18.7344 44.7188 18.7832 44.543 18.8418C44.3672 18.8809 44.2012 18.9395 44.0449 19.0176C43.9082 19.0762 43.8008 19.1738 43.7227 19.3105C43.6641 19.6035 43.6348 19.877 43.6348 20.1309C43.6348 20.4629 43.6934 20.7461 43.8105 20.9805C43.752 21.1562 43.7129 21.3418 43.6934 21.5371C43.6738 21.7324 43.6641 21.918 43.6641 22.0938C43.6641 22.7383 43.7422 23.3828 43.8984 24.0273C44.0547 24.6523 44.1426 25.2871 44.1621 25.9316C44.1621 26.0293 44.1523 26.1367 44.1328 26.2539C44.1133 26.3711 44.1035 26.4785 44.1035 26.5762C44.1035 26.9863 44.2598 27.2598 44.5723 27.3965C44.5137 27.4941 44.4844 27.582 44.4844 27.6602C44.4844 27.8164 44.5039 27.9531 44.543 28.0703C44.582 28.1875 44.5918 28.3145 44.5723 28.4512C44.6699 28.6465 44.7676 28.8223 44.8652 28.9785C44.9629 29.1152 45.0312 29.291 45.0703 29.5059C44.9336 29.7793 44.7676 30.0332 44.5723 30.2676C44.377 30.4824 44.2402 30.7559 44.1621 31.0879C44.084 31.0684 43.9961 31.0586 43.8984 31.0586C43.7617 31.0586 43.6543 31.0879 43.5762 31.1465C43.498 31.2051 43.4297 31.2734 43.3711 31.3516C43.332 31.4492 43.2832 31.5371 43.2246 31.6152C43.166 31.7129 43.0879 31.7812 42.9902 31.8203H42.9023C42.8047 31.8398 42.7168 31.8301 42.6387 31.791C42.5801 31.7715 42.5215 31.7617 42.4629 31.7617C42.4238 31.7617 42.3457 31.7812 42.2285 31.8203C42.0723 31.625 41.9648 31.3906 41.9062 31.1172C41.8477 30.8633 41.8184 30.6094 41.8184 30.3555C41.8184 30.082 41.8574 29.8379 41.9355 29.623C41.7207 29.4473 41.584 29.1836 41.5254 28.832C41.4863 28.4805 41.4375 28.1875 41.3789 27.9531C41.2227 27.2305 41.0371 26.5273 40.8223 25.8438C40.627 25.1602 40.5098 24.457 40.4707 23.7344C40.4512 23.4609 40.4414 23.1973 40.4414 22.9434V21.4199C40.4414 21.166 40.4512 20.9219 40.4707 20.6875C40.4707 20.5117 40.4805 20.3457 40.5 20.1895C40.5391 20.0137 40.5586 19.8379 40.5586 19.6621C40.5586 19.4277 40.4805 19.2031 40.3242 18.9883C38.9375 19.0469 37.6191 19.3008 36.3691 19.75C35.1387 20.1797 33.9082 20.6973 32.6777 21.3027C32.5996 21.752 32.5508 22.1914 32.5312 22.6211C32.5117 23.0508 32.502 23.4902 32.502 23.9395V25.2285C32.502 25.7168 32.5215 26.127 32.5605 26.459C32.6582 27.0254 32.9414 27.4648 33.4102 27.7773C33.8984 28.0703 34.3867 28.2949 34.875 28.4512C34.8555 28.7441 34.7969 28.998 34.6992 29.2129C34.6016 29.4082 34.4746 29.5938 34.3184 29.7695C34.1816 29.9258 34.0254 30.082 33.8496 30.2383C33.6738 30.3945 33.498 30.5703 33.3223 30.7656C33.166 30.668 33.0098 30.5996 32.8535 30.5605C32.6973 30.5215 32.5312 30.502 32.3555 30.502C32.1797 30.4824 32.0039 30.4629 31.8281 30.4434C31.6523 30.4238 31.4766 30.3848 31.3008 30.3262L30.6562 29.4473C30.4414 29.1543 30.207 28.8613 29.9531 28.5684V28.3047C29.9531 27.7773 29.8555 27.2695 29.6602 26.7812C29.4648 26.293 29.3184 25.7949 29.2207 25.2871C29.2793 25.1113 29.3184 24.9355 29.3379 24.7598C29.3574 24.584 29.3672 24.3984 29.3672 24.2031C29.3672 23.8125 29.3477 23.4316 29.3086 23.0605C29.2891 22.6895 29.2988 22.3184 29.3379 21.9473H29.1914C29.0156 21.9473 28.8301 21.9961 28.6348 22.0938C28.4395 22.1719 28.2441 22.2695 28.0488 22.3867C27.873 22.4844 27.6973 22.582 27.5215 22.6797C27.3652 22.7578 27.2285 22.7969 27.1113 22.7969C27.0527 22.7969 26.9941 22.7871 26.9355 22.7676C26.877 22.748 26.8086 22.7383 26.7305 22.7383C26.6328 22.7383 26.5156 22.7773 26.3789 22.8555C26.2422 22.9336 26.0957 23.0215 25.9395 23.1191C25.7637 23.1973 25.5879 23.2754 25.4121 23.3535C25.2363 23.4316 25.0605 23.4707 24.8848 23.4707C24.6113 23.4707 24.3379 23.3535 24.0645 23.1191C24.0254 22.9629 24.0156 22.8164 24.0352 22.6797C24.0352 22.543 24.0352 22.3965 24.0352 22.2402C24.0352 22.084 24.0059 21.918 23.9473 21.7422C24.084 21.4883 24.2695 21.293 24.5039 21.1562C24.7188 21 24.9531 20.8633 25.207 20.7461C25.4414 20.6094 25.6855 20.4824 25.9395 20.3652C26.1934 20.2285 26.4082 20.0527 26.584 19.8379H26.7598C27.0332 19.8379 27.2773 19.7793 27.4922 19.6621C27.7266 19.5449 27.9902 19.4961 28.2832 19.5156C28.3809 19.4766 28.4492 19.3301 28.4883 19.0762L28.6055 19.1055C29.0352 19.1055 29.416 18.959 29.748 18.666C29.9629 17.4551 30.1387 16.2344 30.2754 15.0039C30.4121 13.7734 30.4805 12.543 30.4805 11.3125C30.4805 11.1953 30.4414 11.0781 30.3633 10.9609C30.3242 10.8047 30.3047 10.6582 30.3047 10.5215V10.082C30.3047 9.86719 30.3145 9.64258 30.334 9.4082C30.3535 9.17383 30.4023 8.93945 30.4805 8.70508C30.6758 8.58789 30.8809 8.5293 31.0957 8.5293C31.3496 8.5293 31.5938 8.56836 31.8281 8.64648C32.082 8.70508 32.3262 8.75391 32.5605 8.79297C32.7363 8.96875 32.8633 9.16406 32.9414 9.37891C33.0391 9.59375 33.0977 9.81836 33.1172 10.0527C33.1367 10.2676 33.1367 10.4922 33.1172 10.7266C33.1172 10.9414 33.1172 11.1562 33.1172 11.3711C33.1172 11.8008 33.166 12.2207 33.2637 12.6309C33.3613 13.041 33.4102 13.4414 33.4102 13.832C33.4102 13.9297 33.3711 14.0078 33.293 14.0664C33.2344 14.1055 33.2051 14.2324 33.2051 14.4473C33.2051 14.6621 33.2246 14.8867 33.2637 15.1211C33.3027 15.3555 33.3223 15.5898 33.3223 15.8242C33.3223 16.0977 33.2832 16.3809 33.2051 16.6738C33.127 16.9668 33.0586 17.25 33 17.5234C34.1719 17.4258 35.373 17.2793 36.6035 17.084C37.834 16.8887 39.0059 16.5762 40.1191 16.1465C40.1387 16.1074 40.1484 16.0488 40.1484 15.9707C40.1484 15.8535 40.1387 15.7363 40.1191 15.6191C40.0996 15.502 40.0898 15.375 40.0898 15.2383C40.0898 15.0039 40.168 14.8184 40.3242 14.6816C40.2266 14.1348 40.1582 13.5879 40.1191 13.041C40.0801 12.4941 40.0605 11.9473 40.0605 11.4004V9.73047C40.0605 9.18359 40.0508 8.63672 40.0312 8.08984C40.1875 7.99219 40.3535 7.94336 40.5293 7.94336C40.7441 7.94336 40.9395 8.00195 41.1152 8.11914C41.3105 8.2168 41.5352 8.26562 41.7891 8.26562C41.9648 8.26562 42.1113 8.23633 42.2285 8.17773C42.4434 8.37305 42.5898 8.62695 42.668 8.93945C42.7461 9.25195 42.8145 9.57422 42.873 9.90625C42.9316 10.2383 42.9902 10.5703 43.0488 10.9023C43.127 11.2148 43.2734 11.4688 43.4883 11.6641L43.5176 11.752C43.5176 11.8301 43.4785 11.8887 43.4004 11.9277C43.3223 11.9668 43.2832 12.0449 43.2832 12.1621V12.2793C43.3613 12.5918 43.4199 12.9141 43.459 13.2461C43.498 13.5781 43.5273 13.9199 43.5469 14.2715C43.5859 14.6035 43.6348 14.9355 43.6934 15.2676C43.752 15.5801 43.8594 15.873 44.0156 16.1465C44.1133 16.127 44.2402 16.1172 44.3965 16.1172C44.7871 16.1172 45.0898 16.2539 45.3047 16.5273C45.5391 16.7812 45.7441 17.0449 45.9199 17.3184ZM66.0469 26.2539C65.9688 26.5469 65.8418 26.791 65.666 26.9863C65.4902 27.1816 65.2852 27.3574 65.0508 27.5137C64.8359 27.6699 64.6016 27.8164 64.3477 27.9531C64.0938 28.0703 63.8496 28.207 63.6152 28.3633H63.2344C62.4141 28.3633 61.7793 28.168 61.3301 27.7773C60.9004 27.3672 60.5684 26.8691 60.334 26.2832C60.0996 25.6777 59.9238 25.0332 59.8066 24.3496C59.709 23.666 59.582 23.041 59.4258 22.4746C59.1914 22.6699 58.9961 22.9043 58.8398 23.1777C58.6836 23.4316 58.5176 23.6855 58.3418 23.9395C58.1855 24.1934 58 24.4277 57.7852 24.6426C57.5898 24.8574 57.3262 25.0039 56.9941 25.082C56.9355 25.2188 56.8672 25.3555 56.7891 25.4922C56.7305 25.6289 56.6914 25.7754 56.6719 25.9316C56.2422 26.166 55.8516 26.4395 55.5 26.752C55.1484 27.0645 54.7969 27.3867 54.4453 27.7188C54.0938 28.0508 53.7324 28.373 53.3613 28.6855C53.0098 28.9785 52.6094 29.2227 52.1602 29.418C52.1406 29.3984 52.1016 29.3887 52.043 29.3887C51.8086 29.3887 51.5938 29.4473 51.3984 29.5645C51.2031 29.6621 50.9883 29.7109 50.7539 29.7109C50.5977 29.7109 50.4512 29.6816 50.3145 29.623C50.1973 29.5645 50.0703 29.4961 49.9336 29.418C49.8164 29.3398 49.6895 29.2812 49.5527 29.2422C49.416 29.2031 49.2695 29.1934 49.1133 29.2129C48.918 28.8613 48.6543 28.5391 48.3223 28.2461C48.0098 27.9336 47.8145 27.582 47.7363 27.1914C47.6973 27.0156 47.668 26.8398 47.6484 26.6641C47.6484 26.4688 47.6289 26.2734 47.5898 26.0781C47.5312 25.7852 47.4531 25.4922 47.3555 25.1992C47.2578 24.8867 47.1797 24.5742 47.1211 24.2617C47.2188 23.7344 47.3164 23.1582 47.4141 22.5332C47.4922 21.8887 47.5898 21.2539 47.707 20.6289C47.8438 19.9844 48.0195 19.3789 48.2344 18.8125C48.4688 18.2266 48.7617 17.7285 49.1133 17.3184L49.084 17.1133C49.084 16.8008 49.1426 16.5078 49.2598 16.2344C49.377 15.9609 49.5039 15.6973 49.6406 15.4434C49.7773 15.1895 49.8945 14.9355 49.9922 14.6816C50.0898 14.4277 50.1094 14.1445 50.0508 13.832C50.2852 13.7148 50.5293 13.6172 50.7832 13.5391C51.0371 13.4609 51.3008 13.4219 51.5742 13.4219C51.8281 13.4219 52.0625 13.4609 52.2773 13.5391C52.2383 13.6953 52.3066 13.793 52.4824 13.832V13.9199C52.4824 14.3301 52.4336 14.7305 52.3359 15.1211C52.2383 15.5117 52.1211 15.9023 51.9844 16.293C51.8477 16.6641 51.7109 17.0449 51.5742 17.4355C51.457 17.8066 51.3691 18.1875 51.3105 18.5781C51.2324 18.5977 51.1738 18.6367 51.1348 18.6953C51.1152 18.7539 51.0957 18.8125 51.0762 18.8711C51.0566 18.9297 51.0273 18.9785 50.9883 19.0176C50.9492 19.0566 50.8906 19.0762 50.8125 19.0762C50.6953 19.7598 50.5684 20.4434 50.4316 21.127C50.3145 21.791 50.2559 22.4648 50.2559 23.1484C50.2559 23.5586 50.2949 23.9785 50.373 24.4082C50.4512 24.8379 50.5977 25.248 50.8125 25.6387L50.9297 25.6094C51.1445 25.6094 51.3105 25.6582 51.4277 25.7559C51.5645 25.8535 51.7402 25.9512 51.9551 26.0488C52.1113 26.0098 52.2578 25.9609 52.3945 25.9023C52.5312 25.8242 52.5898 25.6973 52.5703 25.5215C52.8242 25.502 53.0391 25.4434 53.2148 25.3457C53.3906 25.2285 53.5469 25.1016 53.6836 24.9648L54.123 24.5547C54.2793 24.418 54.4648 24.3203 54.6797 24.2617C54.6797 24.1445 54.709 24.0566 54.7676 23.998L54.9434 23.8223C55.002 23.7637 55.041 23.7051 55.0605 23.6465C55.0996 23.5684 55.1094 23.4609 55.0898 23.3242C55.3242 23.3047 55.5 23.2461 55.6172 23.1484C55.7539 23.0508 55.8711 22.9434 55.9688 22.8262C56.0859 22.6895 56.1934 22.5527 56.291 22.416C56.3887 22.2793 56.5156 22.1621 56.6719 22.0645C56.8086 21.7715 56.9941 21.3809 57.2285 20.8926C57.4824 20.4043 57.7266 19.8965 57.9609 19.3691C58.2148 18.8418 58.4297 18.3438 58.6055 17.875C58.8008 17.3867 58.8984 17.0156 58.8984 16.7617C58.8984 16.6641 58.8691 16.5762 58.8105 16.498C58.7715 16.4199 58.7617 16.332 58.7812 16.2344V16.1465C58.9375 15.9512 59.0742 15.7363 59.1914 15.502C59.3281 15.2676 59.4648 15.043 59.6016 14.8281C59.7578 14.6133 59.9238 14.418 60.0996 14.2422C60.2754 14.0664 60.5 13.9297 60.7734 13.832C61.0859 13.9297 61.3984 13.998 61.7109 14.0371C62.043 14.0762 62.3555 14.1543 62.6484 14.2715C62.668 14.7598 62.7168 15.3262 62.7949 15.9707C62.873 16.6152 63.0098 17.1621 63.2051 17.6113C63.2051 17.8652 63.1953 18.1094 63.1758 18.3438C63.1758 18.5781 63.1758 18.8125 63.1758 19.0469C63.1758 19.4375 63.1855 19.8379 63.2051 20.248C63.2441 20.6582 63.3125 21.0391 63.4102 21.3906C63.2734 21.6836 63.2051 21.9961 63.2051 22.3281C63.2051 22.7773 63.2734 23.207 63.4102 23.6172C63.5469 24.0078 63.6445 24.4277 63.7031 24.877C63.957 25.2285 64.2891 25.4043 64.6992 25.4043C64.7969 25.4043 64.875 25.3945 64.9336 25.375C65.0117 25.3555 65.0898 25.3262 65.168 25.2871C65.3242 25.4629 65.4609 25.6387 65.5781 25.8145C65.7148 25.9707 65.8711 26.1172 66.0469 26.2539ZM88.9863 25.7266C88.9863 25.9219 88.9277 26.0879 88.8105 26.2246C88.7129 26.3418 88.5859 26.4492 88.4297 26.5469C88.293 26.6445 88.1465 26.7324 87.9902 26.8105C87.8535 26.8887 87.7266 26.9863 87.6094 27.1035C87.5312 27.1816 87.4727 27.2793 87.4336 27.3965C87.4141 27.4941 87.3652 27.5625 87.2871 27.6016C87.1699 27.6992 87.043 27.7578 86.9062 27.7773C86.7695 27.7969 86.623 27.8262 86.4668 27.8652C86.3301 27.8848 86.1934 27.9238 86.0566 27.9824C85.9199 28.0215 85.8027 28.1094 85.7051 28.2461C84.7871 28.3438 83.8789 28.4707 82.9805 28.627C82.1016 28.7832 81.1934 28.8613 80.2559 28.8613C80.0801 28.8613 79.8848 28.8809 79.6699 28.9199C79.4746 28.9395 79.2891 28.959 79.1133 28.9785C78.7031 29.0176 78.293 29.0469 77.8828 29.0664C77.4922 29.0859 77.0918 29.0957 76.6816 29.0957C76.1152 29.0957 75.5488 29.0762 74.9824 29.0371C74.416 28.9785 73.8594 28.8906 73.3125 28.7734C73.1758 28.6758 73.0195 28.5977 72.8438 28.5391C72.668 28.4805 72.4824 28.4219 72.2871 28.3633C72.1113 28.3047 71.9453 28.2363 71.7891 28.1582C71.6328 28.0801 71.5156 27.9629 71.4375 27.8066C71.1445 27.7871 70.8809 27.7285 70.6465 27.6309C70.4316 27.5332 70.2266 27.4258 70.0312 27.3086C69.8555 27.1719 69.6699 27.0352 69.4746 26.8984C69.2793 26.7617 69.0547 26.6445 68.8008 26.5469C68.6055 26.2734 68.4004 26.0098 68.1855 25.7559C67.9902 25.4824 67.7461 25.2578 67.4531 25.082C67.3945 24.7109 67.2969 24.3398 67.1602 23.9688C67.043 23.5977 66.916 23.2363 66.7793 22.8848C66.6621 22.5137 66.5645 22.1426 66.4863 21.7715C66.3887 21.4004 66.3398 21.0195 66.3398 20.6289C66.3398 20.3555 66.3789 20.0234 66.457 19.6328C66.5352 19.2422 66.6328 18.8516 66.75 18.4609C66.8867 18.0508 67.043 17.6699 67.2188 17.3184C67.3945 16.9668 67.5703 16.6836 67.7461 16.4688C67.8047 16.4102 67.873 16.3613 67.9512 16.3223C68.0293 16.2832 68.0977 16.2246 68.1562 16.1465C68.332 15.9512 68.5176 15.7949 68.7129 15.6777C68.9082 15.541 69.1133 15.3848 69.3281 15.209C69.4062 15.1309 69.4648 15.043 69.5039 14.9453C69.5625 14.8477 69.6406 14.7598 69.7383 14.6816C69.7969 14.6426 69.875 14.6328 69.9727 14.6523C70.0898 14.6719 70.1875 14.6523 70.2656 14.5938C70.3438 14.5352 70.3828 14.4668 70.3828 14.3887C70.3828 14.3105 70.4121 14.2422 70.4707 14.1836C70.4902 14.1641 70.5488 14.1641 70.6465 14.1836C70.7441 14.1836 70.8027 14.1836 70.8223 14.1836C70.959 14.1836 71.1152 14.0957 71.291 13.9199C71.4668 13.7246 71.6133 13.5977 71.7305 13.5391C71.8672 13.4609 72.0039 13.4121 72.1406 13.3926C72.2773 13.3535 72.4238 13.2949 72.5801 13.2168C72.7949 13.0996 73 13.0117 73.1953 12.9531C73.4102 12.875 73.625 12.7871 73.8398 12.6895C73.957 12.6504 74.0645 12.582 74.1621 12.4844C74.2598 12.3867 74.3574 12.3184 74.4551 12.2793C74.6309 12.2207 74.8164 12.1816 75.0117 12.1621C75.2266 12.123 75.4219 12.0938 75.5977 12.0742C75.793 12.0352 75.9785 11.9961 76.1543 11.957C76.3496 11.8984 76.5254 11.8008 76.6816 11.6641H76.916C77.2676 11.6641 77.6094 11.6152 77.9414 11.5176C78.2734 11.4199 78.6152 11.3711 78.9668 11.3711C79.0645 11.3711 79.2109 11.3906 79.4062 11.4297C79.5625 11.332 79.7383 11.2832 79.9336 11.2832C80.2656 11.2832 80.5977 11.3711 80.9297 11.5469C81.2617 11.7031 81.6035 11.7812 81.9551 11.7812H82.1309C82.209 11.7812 82.2871 11.7715 82.3652 11.752C82.5801 11.9668 82.834 12.084 83.127 12.1035C83.4395 12.123 83.7031 12.2109 83.918 12.3672C84.0547 12.4844 84.1621 12.6211 84.2402 12.7773C84.3379 12.9336 84.416 13.0996 84.4746 13.2754L84.6504 13.8027C84.709 13.9785 84.7871 14.1348 84.8848 14.2715C84.7871 14.9746 84.4941 15.541 84.0059 15.9707C83.5371 16.3809 82.9414 16.5859 82.2188 16.5859C81.9453 16.5859 81.7109 16.5566 81.5156 16.498C81.3398 16.4199 81.1738 16.3418 81.0176 16.2637C80.8809 16.1855 80.7344 16.1074 80.5781 16.0293C80.4219 15.9512 80.2461 15.8926 80.0508 15.8535C80.2656 15.4629 80.4023 15.043 80.4609 14.5938C80.2461 14.4961 80.0312 14.4277 79.8164 14.3887C79.6016 14.3496 79.3965 14.2813 79.2012 14.1836C78.6738 14.3203 78.1562 14.418 77.6484 14.4766C77.1602 14.5156 76.7012 14.7207 76.2715 15.0918C76.1738 15.0723 76.0664 15.0527 75.9492 15.0332C75.8516 15.0137 75.7539 15.0039 75.6562 15.0039C75.5391 15.0039 75.3047 15.0918 74.9531 15.2676C74.6016 15.4238 74.2207 15.6094 73.8105 15.8242C73.4199 16.0391 73.0391 16.2539 72.668 16.4688C72.3164 16.6836 72.0723 16.8301 71.9355 16.9082C71.7793 17.0059 71.6426 17.123 71.5254 17.2598C71.4082 17.3965 71.291 17.543 71.1738 17.6992C71.0566 17.8359 70.9395 17.9727 70.8223 18.1094C70.7051 18.2266 70.5586 18.3145 70.3828 18.373C70.3438 18.5879 70.2754 18.7734 70.1777 18.9297C70.0801 19.0859 69.9727 19.252 69.8555 19.4277C69.8359 19.7793 69.7969 20.1309 69.7383 20.4824C69.6992 20.834 69.6797 21.1855 69.6797 21.5371V21.918C69.6797 22.0352 69.6992 22.1426 69.7383 22.2402C69.9336 22.4941 70.0898 22.7773 70.207 23.0898C70.3438 23.4023 70.5684 23.6172 70.8809 23.7344C70.9004 23.8125 70.8906 23.8613 70.8516 23.8809C70.832 23.9004 70.8125 23.9492 70.793 24.0273C70.9102 24.2422 71.0566 24.418 71.2324 24.5547C71.4277 24.6719 71.623 24.7988 71.8184 24.9355C72.0137 25.0527 72.1992 25.1797 72.375 25.3164C72.5508 25.4531 72.6875 25.6289 72.7852 25.8438C73.0781 25.8438 73.3516 25.8926 73.6055 25.9902C73.8789 26.0879 74.1328 26.1953 74.3672 26.3125C74.6211 26.4297 74.8555 26.5371 75.0703 26.6348C75.3047 26.7324 75.5391 26.7812 75.7734 26.7812C75.9883 26.7812 76.1836 26.752 76.3594 26.6934C76.8672 26.8496 77.375 26.9668 77.8828 27.0449C78.4102 27.1035 78.9375 27.1328 79.4648 27.1328C80.1094 27.1328 80.7539 27.0938 81.3984 27.0156C82.043 26.9375 82.6875 26.8691 83.332 26.8105C83.5664 26.7715 83.791 26.752 84.0059 26.752C84.2207 26.752 84.4355 26.7324 84.6504 26.6934C84.9238 26.6543 85.1777 26.5273 85.4121 26.3125C85.666 26.0977 85.9102 25.9414 86.1445 25.8438C86.3594 25.9805 86.6133 26.0488 86.9062 26.0488C87.2383 26.0488 87.5605 26 87.873 25.9023C88.1855 25.7852 88.5078 25.7266 88.8398 25.7266H88.9863ZM111.926 29.5059C111.926 29.6621 111.857 29.7891 111.721 29.8867C111.584 29.9844 111.428 30.082 111.252 30.1797L110.725 30.4434C110.549 30.5215 110.432 30.6289 110.373 30.7656C110.158 30.707 109.943 30.668 109.729 30.6484C109.533 30.6289 109.338 30.6191 109.143 30.6191C108.889 30.6191 108.625 30.6484 108.352 30.707C108.078 30.7461 107.863 30.873 107.707 31.0879C107.609 31.0488 107.521 31.0293 107.443 31.0293H107.209C106.916 31.0293 106.613 31.0488 106.301 31.0879C106.008 31.1465 105.715 31.1758 105.422 31.1758C105.266 31.1758 105.109 31.166 104.953 31.1465C104.816 31.127 104.689 31.0684 104.572 30.9707C104.396 31.0293 104.211 31.0586 104.016 31.0586C103.762 31.0586 103.518 31.0195 103.283 30.9414C103.049 30.8633 102.814 30.7754 102.58 30.6777C102.365 30.5605 102.141 30.4531 101.906 30.3555C101.672 30.2578 101.438 30.1797 101.203 30.1211L100.998 29.7109C100.686 29.6523 100.393 29.5645 100.119 29.4473C99.8652 29.3105 99.6113 29.1641 99.3574 29.0078C99.1035 28.8516 98.8496 28.7051 98.5957 28.5684C98.3613 28.4121 98.1172 28.3047 97.8633 28.2461C97.7656 28.168 97.6777 28.0996 97.5996 28.041C97.5215 27.9629 97.4629 27.8555 97.4238 27.7188C97.1699 27.6602 96.9355 27.582 96.7207 27.4844L96.1055 27.1621C95.9102 27.0449 95.6855 26.9473 95.4316 26.8691C95.1973 26.7715 94.9141 26.7129 94.582 26.6934C94.4648 26.5176 94.2988 26.3516 94.084 26.1953C93.8691 26.0391 93.6543 25.9609 93.4395 25.9609C93.3027 25.9609 93.1953 25.9902 93.1172 26.0488V26.1953C93.1172 26.4297 93.1855 26.6641 93.3223 26.8984C93.459 27.1328 93.6348 27.2988 93.8496 27.3965C93.8301 27.4355 93.8203 27.4941 93.8203 27.5723C93.8203 27.6895 93.8398 27.8066 93.8789 27.9238C93.9375 28.041 94.0352 28.1191 94.1719 28.1582C94.0938 28.373 93.9961 28.5977 93.8789 28.832C93.7617 29.0469 93.6152 29.252 93.4395 29.4473C93.2637 29.6426 93.0684 29.8086 92.8535 29.9453C92.6582 30.0625 92.4336 30.1211 92.1797 30.1211C92.1016 30.1602 92.043 30.2188 92.0039 30.2969C91.9844 30.375 91.9648 30.4629 91.9453 30.5605C91.9453 30.6387 91.9258 30.7168 91.8867 30.7949C91.8672 30.873 91.8281 30.9316 91.7695 30.9707C91.6914 30.9902 91.584 31 91.4473 31C91.252 31 91.0859 30.9707 90.9492 30.9121C90.8125 30.8535 90.666 30.7754 90.5098 30.6777V30.5605C90.5098 30.3262 90.4609 30.1406 90.3633 30.0039C90.2852 29.8672 90.1875 29.7402 90.0703 29.623C89.9727 29.4863 89.875 29.3496 89.7773 29.2129C89.6992 29.0762 89.6602 28.8906 89.6602 28.6562C89.6016 28.6953 89.5332 28.7246 89.4551 28.7441C89.3965 28.7637 89.3574 28.8027 89.3379 28.8613C89.2988 28.666 89.2793 28.5 89.2793 28.3633C89.2793 27.9727 89.3379 27.6016 89.4551 27.25C89.5918 26.8984 89.6602 26.5273 89.6602 26.1367V25.6973C89.6602 25.248 89.6504 24.8086 89.6309 24.3789C89.6113 23.9492 89.6016 23.5195 89.6016 23.0898C89.6016 22.7188 89.6113 22.3574 89.6309 22.0059C89.6504 21.6348 89.6895 21.2637 89.748 20.8926C89.9629 19.6035 90.1387 18.3242 90.2754 17.0547C90.4316 15.7656 90.6758 14.4863 91.0078 13.2168C90.9883 13.1191 90.959 13.0215 90.9199 12.9238C90.9004 12.8262 90.8906 12.7285 90.8906 12.6309C90.8906 12.5527 90.9004 12.5039 90.9199 12.4844C90.998 12.0938 91.1738 11.7715 91.4473 11.5176C91.7207 11.2441 92.0723 11.1074 92.502 11.1074H92.5898C92.8242 11.2051 93 11.3516 93.1172 11.5469C93.2539 11.7227 93.459 11.791 93.7324 11.752C93.7324 11.791 93.7227 11.8301 93.7031 11.8691C93.7031 11.9082 93.7031 11.9473 93.7031 11.9863C93.7031 12.2012 93.7617 12.3574 93.8789 12.4551C93.9961 12.5527 94.1328 12.6602 94.2891 12.7773C94.1914 12.9727 94.123 13.1973 94.084 13.4512C94.0645 13.7051 94.0449 13.959 94.0254 14.2129C94.0059 14.4668 93.9668 14.7109 93.9082 14.9453C93.8691 15.1797 93.7812 15.375 93.6445 15.5312C93.7227 15.7266 93.7715 15.9219 93.791 16.1172C93.8105 16.3125 93.8203 16.5176 93.8203 16.7324C93.8203 16.9473 93.8105 17.1719 93.791 17.4062C93.7715 17.6211 93.7617 17.8457 93.7617 18.0801C93.7617 18.2949 93.791 18.4902 93.8496 18.666C94.2793 18.666 94.5234 18.4609 94.582 18.0508C95.0898 17.9141 95.5391 17.7285 95.9297 17.4941C96.3398 17.2402 96.7305 16.9766 97.1016 16.7031C97.4727 16.4297 97.834 16.1465 98.1855 15.8535C98.5566 15.5605 98.9668 15.3066 99.416 15.0918V15.0332C99.416 14.9355 99.4453 14.877 99.5039 14.8574C99.5625 14.8184 99.5723 14.7305 99.5332 14.5938C99.8262 14.4961 100.07 14.3691 100.266 14.2129C100.48 14.0371 100.676 13.8516 100.852 13.6562L101.408 13.041C101.604 12.8262 101.818 12.6406 102.053 12.4844C102.209 12.1523 102.346 11.8008 102.463 11.4297C102.6 11.0586 102.775 10.7168 102.99 10.4043C103.361 10.4043 103.762 10.4336 104.191 10.4922C104.641 10.5508 105.021 10.6875 105.334 10.9023C105.295 11.0586 105.363 11.166 105.539 11.2246C105.324 12.0449 105.002 12.7871 104.572 13.4512C104.143 14.0957 103.586 14.6426 102.902 15.0918C102.805 15.3066 102.678 15.4922 102.521 15.6484C102.365 15.8047 102.209 15.9609 102.053 16.1172C101.896 16.2539 101.74 16.4004 101.584 16.5566C101.428 16.7129 101.301 16.8984 101.203 17.1133C100.969 17.1523 100.764 17.2207 100.588 17.3184C100.432 17.416 100.275 17.5332 100.119 17.6699C99.9824 17.7871 99.8262 17.9043 99.6504 18.0215C99.4941 18.1191 99.3184 18.1973 99.123 18.2559C98.9668 18.4512 98.7812 18.6172 98.5664 18.7539C98.3711 18.8906 98.166 19.0273 97.9512 19.1641C97.7559 19.2812 97.5703 19.418 97.3945 19.5742C97.2188 19.7109 97.0918 19.8965 97.0137 20.1309H96.252C96.0371 20.502 95.7539 20.8145 95.4023 21.0684C95.0703 21.3027 94.7285 21.5273 94.377 21.7422C94.4355 21.9766 94.543 22.1719 94.6992 22.3281C94.8555 22.4648 95.0215 22.5918 95.1973 22.709C95.3926 22.8262 95.5781 22.9531 95.7539 23.0898C95.9492 23.207 96.1152 23.3535 96.252 23.5293C97.0723 23.8418 97.8633 24.2031 98.625 24.6133C99.3867 25.0039 100.109 25.4824 100.793 26.0488C100.832 26.0293 100.881 26.0195 100.939 26.0195C101.096 26.0195 101.223 26.0684 101.32 26.166C101.418 26.2441 101.555 26.2734 101.73 26.2539C101.809 26.4492 101.916 26.5859 102.053 26.6641C102.189 26.7227 102.326 26.7715 102.463 26.8105C102.619 26.8496 102.766 26.9082 102.902 26.9863C103.039 27.0645 103.137 27.2012 103.195 27.3965C103.488 27.416 103.752 27.4746 103.986 27.5723C104.24 27.6699 104.465 27.8262 104.66 28.041H105.012C105.637 28.041 106.242 28.0996 106.828 28.2168C107.414 28.334 108.01 28.3926 108.615 28.3926C108.928 28.3926 109.23 28.373 109.523 28.334C109.816 28.2754 110.1 28.1777 110.373 28.041C110.471 28.0996 110.578 28.1582 110.695 28.2168C110.812 28.2754 110.939 28.3047 111.076 28.3047C111.174 28.3047 111.32 28.2852 111.516 28.2461C111.535 28.4609 111.604 28.666 111.721 28.8613C111.857 29.0566 111.926 29.2715 111.926 29.5059ZM144.592 19.5156C144.318 19.7109 144.006 19.8379 143.654 19.8965C143.303 19.9355 142.961 19.9551 142.629 19.9551C142.316 19.9551 142.014 19.9453 141.721 19.9258C141.428 19.9062 141.135 19.8965 140.842 19.8965C140.588 19.8965 140.324 19.916 140.051 19.9551C139.797 19.9941 139.562 20.0918 139.348 20.248C139.191 20.209 139.035 20.1797 138.879 20.1602C138.742 20.1406 138.596 20.1309 138.439 20.1309H138.176C138.137 20.3066 138.049 20.4238 137.912 20.4824C137.775 20.5215 137.619 20.541 137.443 20.541C137.307 20.541 137.17 20.5312 137.033 20.5117C136.896 20.4922 136.76 20.4824 136.623 20.4824C136.35 20.5801 136.076 20.6484 135.803 20.6875C135.549 20.707 135.285 20.7754 135.012 20.8926C134.582 21.8105 134.201 22.7676 133.869 23.7637C133.557 24.7402 133.146 25.668 132.639 26.5469V27.1914C131.994 28.6367 131.496 30.1211 131.145 31.6445C130.793 33.1875 130.549 34.7402 130.412 36.3027C130.744 36.5371 131.057 36.791 131.35 37.0645C131.643 37.3379 131.887 37.6602 132.082 38.0312C131.906 38.3047 131.682 38.5098 131.408 38.6465C131.135 38.7832 130.832 38.8516 130.5 38.8516C130.168 38.8516 129.826 38.7832 129.475 38.6465C129.143 38.5293 128.84 38.3535 128.566 38.1191C128.293 37.8848 128.068 37.6113 127.893 37.2988C127.717 36.9863 127.629 36.6543 127.629 36.3027C127.629 36.0293 127.688 35.7559 127.805 35.4824C127.59 34.9941 127.482 34.4863 127.482 33.959C127.482 33.3145 127.619 32.6992 127.893 32.1133C128.186 31.5273 128.508 30.9707 128.859 30.4434C128.82 30.3652 128.791 30.2969 128.771 30.2383C128.771 30.1602 128.771 30.0918 128.771 30.0332C128.771 29.7012 128.859 29.3984 129.035 29.125C129.23 28.832 129.377 28.5391 129.475 28.2461C129.553 27.9727 129.582 27.709 129.562 27.4551C129.543 27.1816 129.582 26.918 129.68 26.6641C129.758 26.4688 129.865 26.3125 130.002 26.1953C130.139 26.0586 130.246 25.9023 130.324 25.7266C130.383 25.5703 130.412 25.4141 130.412 25.2578C130.432 25.082 130.471 24.916 130.529 24.7598C130.568 24.623 130.637 24.5059 130.734 24.4082C130.832 24.291 130.9 24.1641 130.939 24.0273C131.154 23.5195 131.311 23.002 131.408 22.4746C131.525 21.9277 131.721 21.4004 131.994 20.8926C131.896 20.8926 131.789 20.8926 131.672 20.8926C131.574 20.873 131.477 20.8633 131.379 20.8633C131.223 20.8633 131.096 20.8926 130.998 20.9512C130.92 21.0098 130.9 21.127 130.939 21.3027C130.783 21.2441 130.627 21.1855 130.471 21.127C130.334 21.0488 130.168 21 129.973 20.9805C129.797 21.0781 129.631 21.1855 129.475 21.3027C129.318 21.4004 129.143 21.498 128.947 21.5957C128.85 21.5176 128.732 21.4785 128.596 21.4785C128.479 21.459 128.361 21.4492 128.244 21.4492C128.049 21.4492 127.805 21.4785 127.512 21.5371C127.238 21.5957 127.053 21.7324 126.955 21.9473C126.76 21.8887 126.564 21.8496 126.369 21.8301C126.174 21.8105 125.969 21.8008 125.754 21.8008C125.207 21.8008 124.66 21.8496 124.113 21.9473C123.566 22.0254 123.02 22.0645 122.473 22.0645C122.141 22.0645 121.809 22.0352 121.477 21.9766C121.145 21.8984 120.832 21.7715 120.539 21.5957C120.559 21.498 120.568 21.4102 120.568 21.332V21.0684C120.568 20.9121 120.549 20.7852 120.51 20.6875C120.471 20.5898 120.412 20.4727 120.334 20.3359C120.588 20.0039 120.793 19.7012 120.949 19.4277C121.125 19.1348 121.447 18.9199 121.916 18.7832C122.15 18.7246 122.385 18.6953 122.619 18.6953H123.352C123.586 18.6953 123.791 18.6855 123.967 18.666C124.143 18.627 124.328 18.5586 124.523 18.4609H124.582C124.66 18.4609 124.699 18.5 124.699 18.5781C124.719 18.6367 124.768 18.666 124.846 18.666C124.924 18.666 125.012 18.6562 125.109 18.6367C125.207 18.6172 125.295 18.5977 125.373 18.5781C125.529 18.5586 125.686 18.5488 125.842 18.5488C126.018 18.5293 126.193 18.5195 126.369 18.5195C126.584 18.5195 126.789 18.5293 126.984 18.5488C127.199 18.5488 127.424 18.5488 127.658 18.5488C128.088 18.5488 128.518 18.5293 128.947 18.4902C129.377 18.4316 129.797 18.3242 130.207 18.168C130.52 18.2266 130.832 18.2559 131.145 18.2559C131.477 18.2559 131.789 18.2363 132.082 18.1973C132.395 18.1387 132.717 18.0898 133.049 18.0508C133.42 17.543 133.713 16.9961 133.928 16.4102C134.143 15.8242 134.348 15.2383 134.543 14.6523C134.758 14.0469 134.982 13.4609 135.217 12.8945C135.451 12.3086 135.773 11.7812 136.184 11.3125C136.379 10.6094 136.623 9.92578 136.916 9.26172C137.229 8.59766 137.619 7.98242 138.088 7.41602C138.186 6.86914 138.342 6.40039 138.557 6.00977C138.771 5.59961 139.064 5.19922 139.436 4.80859C139.455 4.65234 139.426 4.54492 139.348 4.48633C139.27 4.42773 139.23 4.33008 139.23 4.19336C138.41 4.4082 137.561 4.64258 136.682 4.89648C135.822 5.13086 134.963 5.42383 134.104 5.77539C133.264 6.10742 132.443 6.48828 131.643 6.91797C130.861 7.34766 130.139 7.83594 129.475 8.38281C129.182 8.44141 128.928 8.53906 128.713 8.67578C128.498 8.8125 128.283 8.95898 128.068 9.11523C127.873 9.25195 127.658 9.38867 127.424 9.52539C127.209 9.64258 126.945 9.71094 126.633 9.73047C126.516 9.96484 126.35 10.1504 126.135 10.2871C125.92 10.4238 125.773 10.6289 125.695 10.9023C125.207 11.1562 124.719 11.4004 124.23 11.6348C123.742 11.8691 123.283 12.1426 122.854 12.4551C122.404 12.377 121.975 12.1914 121.564 11.8984C121.154 11.6055 120.949 11.2051 120.949 10.6973C120.949 10.4434 121.008 10.209 121.125 9.99414C121.242 9.7793 121.398 9.59375 121.594 9.4375C122.062 9.32031 122.512 9.11523 122.941 8.82227C123.391 8.5293 123.83 8.26562 124.26 8.03125C124.416 7.93359 124.572 7.8457 124.729 7.76758C124.885 7.68945 125.061 7.62109 125.256 7.5625C125.314 7.52344 125.383 7.50391 125.461 7.50391C125.539 7.48438 125.617 7.45508 125.695 7.41602C125.793 7.37695 125.9 7.30859 126.018 7.21094C126.154 7.11328 126.271 7.02539 126.369 6.94727C126.76 6.67383 127.17 6.42969 127.6 6.21484C128.029 5.98047 128.498 5.86328 129.006 5.86328H129.064C129.123 5.76562 129.201 5.6875 129.299 5.62891L129.621 5.45312C129.738 5.39453 129.836 5.32617 129.914 5.24805C130.012 5.16992 130.08 5.05273 130.119 4.89648H130.207C130.305 4.89648 130.383 4.87695 130.441 4.83789C130.52 4.79883 130.588 4.75977 130.646 4.7207C130.705 4.66211 130.773 4.62305 130.852 4.60352C130.93 4.58398 131.027 4.58398 131.145 4.60352C131.301 4.44727 131.477 4.32031 131.672 4.22266C131.867 4.125 132.053 4.02734 132.229 3.92969C132.424 3.83203 132.609 3.73438 132.785 3.63672C132.98 3.51953 133.137 3.38281 133.254 3.22656C133.312 3.26563 133.4 3.28516 133.518 3.28516C133.635 3.28516 133.762 3.27539 133.898 3.25586C134.035 3.23633 134.172 3.22656 134.309 3.22656C134.406 3.22656 134.465 3.17773 134.484 3.08008C134.504 2.98242 134.514 2.88477 134.514 2.78711C135.061 2.78711 135.51 2.62109 135.861 2.28906C136.35 2.26953 136.828 2.19141 137.297 2.05469C137.766 1.89844 138.225 1.73242 138.674 1.55664C139.123 1.38086 139.572 1.22461 140.021 1.08789C140.49 0.931641 140.969 0.84375 141.457 0.824219C141.516 1 141.613 1.13672 141.75 1.23438C141.906 1.3125 142.082 1.38086 142.277 1.43945L142.863 1.61523C143.059 1.67383 143.215 1.76172 143.332 1.87891C143.293 1.97656 143.264 2.10352 143.244 2.25977C143.244 2.39648 143.225 2.54297 143.186 2.69922C143.166 2.85547 143.127 2.99219 143.068 3.10938C143.029 3.22656 142.951 3.30469 142.834 3.34375C142.678 3.94922 142.473 4.54492 142.219 5.13086C141.965 5.69727 141.633 6.22461 141.223 6.71289V7.21094C140.852 7.71875 140.52 8.24609 140.227 8.79297C139.953 9.32031 139.68 9.86719 139.406 10.4336L138.615 12.1035C138.361 12.6504 138.078 13.1875 137.766 13.7148V14.3594C137.629 14.457 137.521 14.584 137.443 14.7402C137.385 14.877 137.326 15.0234 137.268 15.1797C137.209 15.3359 137.141 15.4824 137.062 15.6191C136.984 15.7559 136.867 15.8633 136.711 15.9414V16.0293C136.711 16.3613 136.662 16.6445 136.564 16.8789C136.467 17.1133 136.34 17.3574 136.184 17.6113C136.262 17.7676 136.369 17.8652 136.506 17.9043C136.643 17.9434 136.779 17.9629 136.916 17.9629C137.072 17.9629 137.219 17.9727 137.355 17.9922C137.512 17.9922 137.648 18.0508 137.766 18.168C138.117 18.0312 138.508 17.9629 138.938 17.9629C139.328 17.9629 139.719 18.002 140.109 18.0801C140.5 18.1387 140.891 18.168 141.281 18.168C141.535 18.168 141.691 18.1289 141.75 18.0508C141.809 17.9727 141.916 17.8652 142.072 17.7285C142.307 17.7676 142.521 17.8359 142.717 17.9336C142.932 18.0117 143.137 18.1094 143.332 18.2266C143.547 18.3242 143.752 18.4219 143.947 18.5195C144.143 18.5977 144.357 18.6465 144.592 18.666V19.5156ZM168.938 18.3145C168.938 19.5449 168.82 20.7461 168.586 21.918C168.371 23.0703 168.107 24.2324 167.795 25.4043C167.58 25.6191 167.414 25.8438 167.297 26.0781C167.18 26.293 167.131 26.5566 167.15 26.8691C166.916 26.9277 166.76 27.0742 166.682 27.3086C166.604 27.5234 166.516 27.7285 166.418 27.9238C166.086 28.1387 165.793 28.3926 165.539 28.6855C165.305 28.959 165.051 29.2324 164.777 29.5059C164.699 29.584 164.621 29.6719 164.543 29.7695C164.484 29.8672 164.416 29.9453 164.338 30.0039C164.162 30.1406 163.967 30.2676 163.752 30.3848C163.537 30.4824 163.342 30.5898 163.166 30.707C162.775 30.9609 162.395 31.2246 162.023 31.498C161.652 31.791 161.291 32.1035 160.939 32.4355C160.1 32.7676 159.289 33.1387 158.508 33.5488C157.746 33.9785 156.984 34.4473 156.223 34.9551H155.49C155.236 35.1113 155.002 35.2383 154.787 35.3359C154.572 35.4336 154.318 35.4824 154.025 35.4824C153.635 35.7363 153.205 35.9414 152.736 36.0977C152.268 36.2734 151.789 36.4297 151.301 36.5664C150.812 36.7031 150.324 36.8301 149.836 36.9473C149.348 37.0645 148.889 37.2012 148.459 37.3574C148.361 37.3379 148.264 37.3086 148.166 37.2695C148.088 37.25 148 37.2402 147.902 37.2402C147.629 37.2402 147.375 37.2988 147.141 37.416C146.926 37.5332 146.691 37.6211 146.438 37.6797C146.359 37.7188 146.271 37.7285 146.174 37.709C146.076 37.709 145.988 37.709 145.91 37.709C145.402 37.709 144.943 37.6211 144.533 37.4453C144.123 37.2891 143.684 37.1621 143.215 37.0645C143.098 36.8105 142.932 36.5664 142.717 36.332L142.072 35.6289C141.857 35.3945 141.672 35.1504 141.516 34.8965C141.34 34.6621 141.232 34.3984 141.193 34.1055V33.8125C141.193 33.5977 141.174 33.3828 141.135 33.168C141.096 32.9531 141.047 32.7383 140.988 32.5234C141.125 32.1719 141.262 31.8008 141.398 31.4102C141.535 31.0195 141.682 30.6387 141.838 30.2676C141.994 29.877 142.17 29.5059 142.365 29.1543C142.561 28.8027 142.805 28.5 143.098 28.2461C143.195 27.8164 143.352 27.4258 143.566 27.0742C143.762 26.7031 143.986 26.3516 144.24 26.0195C144.475 25.668 144.709 25.3164 144.943 24.9648C145.178 24.6133 145.373 24.2324 145.529 23.8223C145.627 23.8418 145.686 23.8223 145.705 23.7637C145.744 23.7051 145.773 23.6465 145.793 23.5879C145.832 23.5098 145.871 23.4512 145.91 23.4121C145.949 23.373 146.027 23.373 146.145 23.4121C146.145 23.2168 146.184 23.0605 146.262 22.9434C146.34 22.8066 146.418 22.6797 146.496 22.5625C146.594 22.4453 146.672 22.3281 146.73 22.2109C146.809 22.0742 146.857 21.918 146.877 21.7422C147.014 21.6836 147.121 21.5957 147.199 21.4785C147.297 21.3613 147.385 21.2441 147.463 21.127C147.541 20.9902 147.619 20.8633 147.697 20.7461C147.775 20.6289 147.893 20.541 148.049 20.4824C148.088 20.2285 148.156 20.0137 148.254 19.8379C148.371 19.6426 148.488 19.4668 148.605 19.3105C148.742 19.1543 148.869 18.998 148.986 18.8418C149.123 18.666 149.23 18.4707 149.309 18.2559C149.426 18.1582 149.562 18.1289 149.719 18.168C149.992 17.6211 150.314 17.1035 150.686 16.6152C151.057 16.127 151.438 15.6484 151.828 15.1797C152.219 14.7109 152.609 14.2422 153 13.7734C153.391 13.2852 153.732 12.7773 154.025 12.25C154.299 12.0938 154.553 11.9082 154.787 11.6934C155.041 11.459 155.246 11.1953 155.402 10.9023C155.012 10.1602 154.67 9.44727 154.377 8.76367C154.084 8.06055 153.938 7.26953 153.938 6.39062C153.938 6.25391 153.947 6.11719 153.967 5.98047C153.986 5.84375 154.006 5.69727 154.025 5.54102C154.357 5.0918 154.68 4.7207 154.992 4.42773C155.305 4.11523 155.764 3.95898 156.369 3.95898C156.955 3.95898 157.521 4.06641 158.068 4.28125C158.635 4.49609 159.211 4.60352 159.797 4.60352C160.09 4.81836 160.383 5.01367 160.676 5.18945C160.988 5.3457 161.311 5.50195 161.643 5.6582L162.023 5.80469C162.18 5.84375 162.316 5.89258 162.434 5.95117C162.551 6.0293 162.668 6.11719 162.785 6.21484C162.922 6.3125 163.049 6.41016 163.166 6.50781C163.947 7.15234 164.67 7.85547 165.334 8.61719C166.018 9.35938 166.691 10.1211 167.355 10.9023V10.9609C167.355 11.2734 167.424 11.5176 167.561 11.6934C167.697 11.8496 167.844 12.0352 168 12.25C168 12.6016 168.049 12.9141 168.146 13.1875C168.244 13.4609 168.371 13.7441 168.527 14.0371C168.527 14.3105 168.527 14.5938 168.527 14.8867C168.547 15.1602 168.596 15.4336 168.674 15.707C168.752 15.9023 168.801 16.0488 168.82 16.1465C168.898 16.4199 168.938 16.7715 168.938 17.2012V18.3145ZM166.564 18.2852C166.564 17.7188 166.525 17.2012 166.447 16.7324C166.389 16.2441 166.311 15.7266 166.213 15.1797C166.135 14.7109 166.037 14.2422 165.92 13.7734C165.822 13.3047 165.666 12.8555 165.451 12.4258C165.256 11.9961 164.992 11.6055 164.66 11.2539C164.348 10.9023 163.957 10.5996 163.488 10.3457H163.4C163.342 10.3457 163.273 10.3945 163.195 10.4922C163.137 10.5703 163 10.6094 162.785 10.6094C162.668 10.6094 162.551 10.5898 162.434 10.5508C162.336 10.4922 162.238 10.4727 162.141 10.4922H162.023C161.789 10.6094 161.584 10.6973 161.408 10.7559C161.232 10.8145 161.008 10.8242 160.734 10.7852C160.441 11.0586 160.129 11.3125 159.797 11.5469C159.484 11.7617 159.133 11.9277 158.742 12.0449C158.566 12.3965 158.342 12.709 158.068 12.9824C157.795 13.2363 157.463 13.4121 157.072 13.5098C156.994 13.7441 156.877 13.9492 156.721 14.125C156.584 14.2813 156.428 14.4277 156.252 14.5645C156.076 14.6816 155.891 14.7988 155.695 14.916C155.5 15.0332 155.324 15.1602 155.168 15.2969C155.012 15.4531 154.885 15.6191 154.787 15.7949C154.709 15.9512 154.592 16.0977 154.436 16.2344C154.221 16.4297 154.025 16.6152 153.85 16.791C153.693 16.9668 153.537 17.1719 153.381 17.4062C153.244 17.6211 153.107 17.8359 152.971 18.0508C152.854 18.2656 152.785 18.5098 152.766 18.7832C152.199 19.1152 151.75 19.5449 151.418 20.0723L150.422 21.6543C150.285 21.8496 150.148 22.0254 150.012 22.1816L149.602 22.6504C149.543 22.7285 149.504 22.8164 149.484 22.9141C149.484 23.0117 149.494 23.1094 149.514 23.207C149.24 23.4023 149.006 23.6367 148.811 23.9102C148.615 24.1641 148.43 24.4375 148.254 24.7305C148.098 25.0234 147.922 25.3164 147.727 25.6094C147.551 25.8828 147.336 26.127 147.082 26.3418C146.926 26.7324 146.74 27.1328 146.525 27.543C146.33 27.9336 146.066 28.2656 145.734 28.5391C145.402 29.3594 145.08 30.1699 144.768 30.9707C144.475 31.7715 144.27 32.6113 144.152 33.4902C144.289 33.627 144.426 33.7441 144.562 33.8418C144.699 33.959 144.836 34.0859 144.973 34.2227C144.992 34.2422 145.031 34.252 145.09 34.252C145.188 34.252 145.256 34.2227 145.295 34.1641C145.354 34.1055 145.422 34.0762 145.5 34.0762C145.539 34.0762 145.559 34.0762 145.559 34.0762L145.617 34.1055C145.637 34.2422 145.695 34.3398 145.793 34.3984C145.891 34.457 146.008 34.4961 146.145 34.5156C146.281 34.5547 146.418 34.584 146.555 34.6035C146.691 34.623 146.799 34.6719 146.877 34.75C147.307 34.6133 147.785 34.5059 148.312 34.4277C148.84 34.3691 149.357 34.291 149.865 34.1934C150.393 34.1152 150.9 33.998 151.389 33.8418C151.877 33.6855 152.297 33.4609 152.648 33.168H152.971C153.166 33.168 153.303 33.207 153.381 33.2852C153.752 32.9141 154.123 32.6309 154.494 32.4355C154.865 32.2402 155.305 32.1328 155.812 32.1133C156.555 31.4297 157.395 30.8828 158.332 30.4727C159.289 30.043 160.197 29.5742 161.057 29.0664C161.154 29.0273 161.203 28.959 161.203 28.8613C161.203 28.7441 161.252 28.6758 161.35 28.6562C161.447 28.6367 161.525 28.6367 161.584 28.6562C161.662 28.6562 161.74 28.6562 161.818 28.6562C162.502 27.9922 163.156 27.3184 163.781 26.6348C164.426 25.9316 164.992 25.1699 165.48 24.3496C165.48 24.2129 165.49 24.0957 165.51 23.998C165.549 23.8809 165.568 23.7734 165.568 23.6758C165.568 23.6367 165.559 23.5977 165.539 23.5586C165.52 23.5 165.5 23.4512 165.48 23.4121C165.871 22.6309 166.145 21.8008 166.301 20.9219C166.477 20.0234 166.564 19.1445 166.564 18.2852ZM159.797 7.73828C159.543 7.5625 159.24 7.40625 158.889 7.26953C158.537 7.11328 158.205 7.03516 157.893 7.03516C157.561 7.03516 157.316 7.13281 157.16 7.32812C157.023 7.50391 156.955 7.74805 156.955 8.06055C156.955 8.23633 157.004 8.38281 157.102 8.5C157.199 8.59766 157.219 8.79297 157.16 9.08594C157.219 9.125 157.297 9.14453 157.395 9.14453C157.629 9.14453 157.854 9.0957 158.068 8.99805C158.283 8.90039 158.479 8.7832 158.654 8.64648C158.85 8.49023 159.035 8.33398 159.211 8.17773C159.406 8.00195 159.602 7.85547 159.797 7.73828Z" fill="black"/>
</svg>
