<svg width="116" height="38" viewBox="0 0 116 38" fill="none" xmlns="http://www.w3.org/2000/svg">
<path d="M9.25391 37.2656C7.95182 37.2656 6.76693 36.9531 5.69922 36.3281C4.65755 35.7031 3.75911 34.8438 3.00391 33.75C2.27474 32.6562 1.71484 31.3802 1.32422 29.9219C0.959635 28.4375 0.803385 26.862 0.855469 25.1953C0.907552 23.6328 1.10286 21.9401 1.44141 20.1172C1.80599 18.2943 2.3138 16.4714 2.96484 14.6484C3.61589 12.7995 4.39714 11.0286 5.30859 9.33594C6.24609 7.61719 7.3138 6.10677 8.51172 4.80469C9.70964 3.5026 11.0378 2.46094 12.4961 1.67969C13.9544 0.872396 15.556 0.46875 17.3008 0.46875C18.3685 0.46875 19.2669 0.690104 19.9961 1.13281C20.7513 1.54948 21.3503 2.10938 21.793 2.8125C22.2617 3.51562 22.5872 4.3099 22.7695 5.19531C22.9518 6.08073 23.0299 6.97917 23.0039 7.89062C22.9518 8.75 22.8216 9.58333 22.6133 10.3906C22.431 11.1979 22.1576 11.9271 21.793 12.5781C21.4544 13.2031 21.0247 13.7109 20.5039 14.1016C20.0091 14.4661 19.4362 14.6484 18.7852 14.6484C18.4727 14.6224 18.1732 14.5182 17.8867 14.3359C17.6263 14.1797 17.3529 13.9453 17.0664 13.6328C16.806 13.3203 16.5586 12.8646 16.3242 12.2656C17.0273 11.9792 17.5742 11.4844 17.9648 10.7812C18.3815 10.0521 18.694 9.29688 18.9023 8.51562C19.1367 7.63021 19.293 6.64062 19.3711 5.54688C19.4232 4.47917 19.2018 3.69792 18.707 3.20312C18.2122 2.70833 17.6523 2.46094 17.0273 2.46094C15.8034 2.46094 14.5143 3.09896 13.1602 4.375C11.806 5.65104 10.543 7.38281 9.37109 9.57031C8.22526 11.7318 7.2487 14.2578 6.44141 17.1484C5.66016 20.0391 5.20443 23.099 5.07422 26.3281C5.02214 27.7865 5.11328 29.0234 5.34766 30.0391C5.60807 31.0547 5.95964 31.888 6.40234 32.5391C6.87109 33.1901 7.39193 33.6589 7.96484 33.9453C8.53776 34.2318 9.11068 34.375 9.68359 34.375C10.5951 34.375 11.4544 34.1797 12.2617 33.7891C13.069 33.3984 13.7982 32.9167 14.4492 32.3438C15.1263 31.7708 15.6992 31.1719 16.168 30.5469C16.6628 29.9479 17.0404 29.4141 17.3008 28.9453C17.4831 28.6068 17.6784 28.3984 17.8867 28.3203C18.0951 28.2422 18.2773 28.2682 18.4336 28.3984C18.5898 28.5026 18.694 28.6849 18.7461 28.9453C18.7982 29.1797 18.7461 29.4661 18.5898 29.8047C18.1471 30.6901 17.6003 31.5755 16.9492 32.4609C16.3242 33.3464 15.6081 34.1406 14.8008 34.8438C14.0195 35.5729 13.1602 36.1589 12.2227 36.6016C11.2852 37.0443 10.2956 37.2656 9.25391 37.2656ZM27.6523 30.625C26.6628 30.625 25.8555 30.4688 25.2305 30.1562C24.6055 29.8438 24.1107 29.4661 23.7461 29.0234C23.4076 28.5547 23.1602 28.0599 23.0039 27.5391C22.8737 26.9922 22.8086 26.4974 22.8086 26.0547C22.8086 25.2734 22.8737 24.4531 23.0039 23.5938C23.1341 22.7083 23.2904 21.901 23.4727 21.1719C23.6549 20.4167 23.8112 19.7786 23.9414 19.2578C24.0977 18.737 24.2018 18.4115 24.2539 18.2812C24.4883 17.526 24.7878 16.875 25.1523 16.3281C25.543 15.7552 26.0768 15.3646 26.7539 15.1562C27.0143 15.1042 27.2878 15.0521 27.5742 15C27.8086 14.974 28.043 14.9609 28.2773 14.9609C28.5378 14.9609 28.7721 15 28.9805 15.0781C28.2773 16.875 27.7174 18.3724 27.3008 19.5703C26.9102 20.7682 26.6107 21.7448 26.4023 22.5C26.168 23.3594 26.0247 24.0495 25.9727 24.5703C25.8424 25.7422 25.9466 26.6276 26.2852 27.2266C26.6237 27.8255 27.3138 28.125 28.3555 28.125C29.0326 28.125 29.6836 27.8776 30.3086 27.3828C30.9336 26.862 31.5065 26.1979 32.0273 25.3906C31.9492 24.974 31.9102 24.5443 31.9102 24.1016C31.9102 23.2682 31.9753 22.4609 32.1055 21.6797C32.2617 20.8724 32.431 20.1302 32.6133 19.4531C32.8216 18.75 33.0299 18.125 33.2383 17.5781C33.4727 17.0312 33.668 16.6016 33.8242 16.2891C34.1107 15.6641 34.3711 15.2865 34.6055 15.1562C34.8398 15 35.2174 14.9089 35.7383 14.8828C35.9466 14.8568 36.1159 14.8568 36.2461 14.8828C36.4023 14.8828 36.5326 14.8958 36.6367 14.9219C36.9492 15 37.1055 15.1562 37.1055 15.3906C37.1055 15.8073 37.0794 16.4323 37.0273 17.2656C36.9753 18.099 36.819 18.9583 36.5586 19.8438C36.3763 20.5729 36.194 21.1979 36.0117 21.7188C35.8555 22.2135 35.6992 22.6432 35.543 23.0078C35.3867 23.3464 35.2305 23.6328 35.0742 23.8672C34.918 24.0755 34.7747 24.2708 34.6445 24.4531C34.6966 25.2344 34.7617 25.8594 34.8398 26.3281C34.918 26.7969 35.0091 27.1615 35.1133 27.4219C35.2435 27.6562 35.3867 27.8255 35.543 27.9297C35.7253 28.0078 35.9206 28.0469 36.1289 28.0469C36.4935 28.0469 36.9232 27.8776 37.418 27.5391C37.9128 27.1745 38.4206 26.7318 38.9414 26.2109C39.4883 25.6641 40.0221 25.0781 40.543 24.4531C41.0898 23.8021 41.5846 23.1901 42.0273 22.6172C42.4701 22.0443 42.8477 21.5495 43.1602 21.1328C43.4727 20.6901 43.668 20.4167 43.7461 20.3125C43.9284 20.0781 44.0977 19.9349 44.2539 19.8828C44.4362 19.8307 44.5794 19.8568 44.6836 19.9609C44.7878 20.0391 44.8398 20.1823 44.8398 20.3906C44.8659 20.5729 44.8138 20.7812 44.6836 21.0156C44.1628 22.0052 43.5117 23.0599 42.7305 24.1797C41.9753 25.2734 41.1549 26.2891 40.2695 27.2266C39.4102 28.1641 38.5378 28.9453 37.6523 29.5703C36.7669 30.1953 35.9336 30.5078 35.1523 30.5078C34.4492 30.5078 33.8893 30.2734 33.4727 29.8047C33.082 29.3099 32.7435 28.6068 32.457 27.6953C31.8581 28.6328 31.1549 29.362 30.3477 29.8828C29.5404 30.3776 28.6419 30.625 27.6523 30.625ZM47.0664 28.6719C47.2227 28.776 47.418 28.8281 47.6523 28.8281C47.9128 28.8281 48.1602 28.776 48.3945 28.6719C48.6549 28.5677 48.8893 28.4245 49.0977 28.2422C49.332 28.0599 49.5013 27.8255 49.6055 27.5391C49.7096 27.2526 49.7096 26.849 49.6055 26.3281C49.5013 25.7812 49.332 25.2083 49.0977 24.6094C48.8893 23.9844 48.6549 23.3594 48.3945 22.7344C48.1341 22.1094 47.9128 21.5365 47.7305 21.0156C47.5742 20.625 47.444 20.2604 47.3398 19.9219C47.2357 19.6354 47.1315 19.362 47.0273 19.1016C46.9492 18.8151 46.8841 18.6198 46.832 18.5156C46.7018 18.724 46.4674 19.0625 46.1289 19.5312C45.8164 20 45.4648 20.4948 45.0742 21.0156C44.7096 21.5104 44.3581 21.9792 44.0195 22.4219C43.681 22.8385 43.4466 23.125 43.3164 23.2812C43.1081 23.5156 42.8997 23.6589 42.6914 23.7109C42.5091 23.737 42.3529 23.6979 42.2227 23.5938C42.0924 23.4635 42.0143 23.2943 41.9883 23.0859C41.9883 22.8516 42.0924 22.5781 42.3008 22.2656C42.457 22.0573 42.6914 21.7318 43.0039 21.2891C43.3164 20.8203 43.6289 20.3516 43.9414 19.8828C44.2539 19.388 44.5404 18.9583 44.8008 18.5938C45.0612 18.2031 45.2044 17.9688 45.2305 17.8906C45.2826 17.6823 45.2044 17.4089 44.9961 17.0703C44.8138 16.7318 44.7878 16.3411 44.918 15.8984C45.0221 15.5339 45.2565 15.1172 45.6211 14.6484C45.9857 14.1536 46.4154 13.7109 46.9102 13.3203C47.4049 12.9297 47.9128 12.6432 48.4336 12.4609C48.9544 12.2526 49.4232 12.2526 49.8398 12.4609C50.1784 12.6693 50.4518 12.9036 50.6602 13.1641C50.8685 13.3984 50.9466 13.6458 50.8945 13.9062C50.8424 14.0365 50.7643 14.2057 50.6602 14.4141C50.556 14.6224 50.3997 14.8828 50.1914 15.1953C49.9831 15.4818 49.6836 15.8594 49.293 16.3281C49.3711 16.9271 49.4753 17.474 49.6055 17.9688C49.7617 18.4635 49.9049 18.8932 50.0352 19.2578C50.1914 19.7005 50.3607 20.1042 50.543 20.4688C50.7773 20.9375 51.0247 21.4193 51.2852 21.9141C51.5456 22.4089 51.7799 22.9036 51.9883 23.3984C52.1966 23.8672 52.3659 24.3099 52.4961 24.7266C52.6263 25.1432 52.6654 25.4948 52.6133 25.7812C52.5352 26.224 52.3008 26.7578 51.9102 27.3828C51.5456 28.0078 51.0768 28.6198 50.5039 29.2188C49.957 29.7917 49.319 30.2865 48.5898 30.7031C47.8867 31.1198 47.1445 31.3281 46.3633 31.3281C45.8164 31.3281 45.2826 31.1589 44.7617 30.8203C44.2669 30.4818 43.8372 30.0911 43.4727 29.6484C43.1341 29.1797 42.8737 28.724 42.6914 28.2812C42.5352 27.8385 42.5221 27.5 42.6523 27.2656C42.8086 26.9531 42.9518 26.7057 43.082 26.5234C43.2122 26.3411 43.4076 26.1328 43.668 25.8984C43.7721 25.8203 43.9023 25.7292 44.0586 25.625C44.1888 25.5469 44.3711 25.4688 44.6055 25.3906C44.8398 25.3125 45.1133 25.2214 45.4258 25.1172C45.6862 25.9245 45.9206 26.5625 46.1289 27.0312C46.3372 27.474 46.5065 27.8255 46.6367 28.0859C46.793 28.3724 46.9362 28.5677 47.0664 28.6719ZM70.0352 20.1172C70.1393 19.9609 70.2695 19.8698 70.4258 19.8438C70.6081 19.7917 70.7513 19.8047 70.8555 19.8828C70.9596 19.9609 71.0117 20.0911 71.0117 20.2734C71.0378 20.4557 70.9727 20.7031 70.8164 21.0156C70.2956 22.0052 69.6055 23.0729 68.7461 24.2188C67.9128 25.3646 67.0273 26.4453 66.0898 27.4609C65.1523 28.4505 64.2409 29.2708 63.3555 29.9219C62.4701 30.5729 61.7279 30.8984 61.1289 30.8984C60.2695 30.8984 59.5534 30.7292 58.9805 30.3906C58.4076 30.0521 57.9518 29.6354 57.6133 29.1406C57.3008 28.6458 57.0794 28.112 56.9492 27.5391C56.819 26.9401 56.7799 26.3932 56.832 25.8984C56.8581 25.4818 56.9492 24.7396 57.1055 23.6719C57.2617 22.5781 57.4701 21.3281 57.7305 19.9219C57.9909 18.4896 58.2773 16.9661 58.5898 15.3516C58.9284 13.7109 59.2799 12.1354 59.6445 10.625C59.2018 10.6771 58.7591 10.7292 58.3164 10.7812C57.8737 10.8333 57.4701 10.8594 57.1055 10.8594C56.2721 10.8594 55.4909 10.7682 54.7617 10.5859C54.0065 10.3776 53.4466 10.1823 53.082 10C52.8737 9.89583 52.7826 9.7526 52.8086 9.57031C52.8346 9.36198 52.9128 9.16667 53.043 8.98438C53.1732 8.77604 53.3424 8.60677 53.5508 8.47656C53.7331 8.32031 53.9023 8.24219 54.0586 8.24219C54.5534 8.29427 55.0872 8.34635 55.6602 8.39844C56.2331 8.42448 56.8581 8.42448 57.5352 8.39844C58.0299 8.3724 58.4987 8.33333 58.9414 8.28125C59.4102 8.22917 59.8659 8.16406 60.3086 8.08594C60.6471 6.83594 60.9727 5.75521 61.2852 4.84375C61.6237 3.90625 61.9232 3.25521 62.1836 2.89062C62.2617 2.76042 62.431 2.65625 62.6914 2.57812C62.9779 2.47396 63.2773 2.40885 63.5898 2.38281C63.9023 2.33073 64.2018 2.33073 64.4883 2.38281C64.7747 2.40885 64.9831 2.5 65.1133 2.65625C65.2435 2.86458 65.2956 3.39844 65.2695 4.25781C65.2435 5.11719 65.1003 6.21094 64.8398 7.53906C65.9336 7.53906 66.8971 7.60417 67.7305 7.73438C68.5898 7.83854 69.319 7.96875 69.918 8.125C70.5169 8.25521 70.9987 8.39844 71.3633 8.55469C71.7279 8.6849 72.0013 8.77604 72.1836 8.82812C72.3659 8.88021 72.457 9.01042 72.457 9.21875C72.4831 9.42708 72.444 9.64844 72.3398 9.88281C72.2617 10.0911 72.1185 10.2734 71.9102 10.4297C71.7018 10.5859 71.4674 10.638 71.207 10.5859C70.9466 10.5599 70.6471 10.5078 70.3086 10.4297C69.9961 10.3516 69.6055 10.2865 69.1367 10.2344C68.694 10.1823 68.1602 10.1302 67.5352 10.0781C66.9102 10.026 66.181 10 65.3477 10C65.1914 10 65.0091 10.013 64.8008 10.0391C64.6185 10.0391 64.4232 10.0391 64.2148 10.0391C64.1107 10.4557 64.0065 10.8724 63.9023 11.2891C63.8242 11.6797 63.707 12.0964 63.5508 12.5391C63.2122 13.5807 62.8216 14.7135 62.3789 15.9375C61.9883 17.0052 61.5195 18.2292 60.9727 19.6094C60.4258 20.9896 59.8138 22.4609 59.1367 24.0234C58.9805 25.1432 58.9935 26.0026 59.1758 26.6016C59.3841 27.1745 59.6315 27.5911 59.918 27.8516C60.2565 28.138 60.6732 28.2943 61.168 28.3203C61.5586 28.3724 62.0273 28.2422 62.5742 27.9297C63.1471 27.5911 63.7331 27.1484 64.332 26.6016C64.931 26.0547 65.5299 25.4557 66.1289 24.8047C66.7539 24.1536 67.3268 23.5156 67.8477 22.8906C68.3685 22.2656 68.8242 21.7057 69.2148 21.2109C69.6055 20.6901 69.8789 20.3255 70.0352 20.1172ZM79.2539 23.7891C78.9935 24.7786 78.6419 25.7031 78.1992 26.5625C77.7565 27.4219 77.2227 28.1641 76.5977 28.7891C75.9987 29.4141 75.3086 29.8958 74.5273 30.2344C73.7721 30.599 72.9388 30.7812 72.0273 30.7812C70.9596 30.7812 70.1133 30.5469 69.4883 30.0781C68.8893 29.6354 68.4336 29.0755 68.1211 28.3984C67.8346 27.7214 67.6654 26.9792 67.6133 26.1719C67.5352 25.3646 67.4961 24.6094 67.4961 23.9062C67.4961 23.4115 67.5612 22.8646 67.6914 22.2656C67.7956 21.6667 67.9518 21.0547 68.1602 20.4297C68.3685 19.8047 68.6289 19.1797 68.9414 18.5547C69.2799 17.9297 69.6706 17.3568 70.1133 16.8359C70.2695 16.3932 70.5039 16.0026 70.8164 15.6641C71.1549 15.3255 71.5326 15.0521 71.9492 14.8438C72.3919 14.6094 72.8607 14.4401 73.3555 14.3359C73.8503 14.2057 74.332 14.1406 74.8008 14.1406C74.8789 14.1406 74.944 14.1536 74.9961 14.1797C75.0742 14.2057 75.1523 14.2318 75.2305 14.2578C75.569 14.2839 75.9857 14.4141 76.4805 14.6484C77.0013 14.8828 77.4961 15.2344 77.9648 15.7031C78.4596 16.1719 78.8763 16.7708 79.2148 17.5C79.5534 18.2031 79.7227 19.0625 79.7227 20.0781C79.7227 20.2865 79.7096 20.5469 79.6836 20.8594C79.6576 21.1458 79.6315 21.3932 79.6055 21.6016C80.2044 21.3672 80.8294 21.0807 81.4805 20.7422C82.1315 20.4036 82.7565 20.0521 83.3555 19.6875C83.9805 19.2969 84.5534 18.9062 85.0742 18.5156C85.5951 18.125 86.0117 17.7734 86.3242 17.4609C86.5846 17.2266 86.806 17.0964 86.9883 17.0703C87.1706 17.0443 87.3008 17.0964 87.3789 17.2266C87.457 17.3568 87.4701 17.5391 87.418 17.7734C87.3659 18.0078 87.2227 18.2682 86.9883 18.5547C86.8581 18.7109 86.5195 19.0234 85.9727 19.4922C85.4518 19.9609 84.8268 20.4688 84.0977 21.0156C83.3685 21.5625 82.5742 22.0964 81.7148 22.6172C80.8555 23.138 80.0352 23.5286 79.2539 23.7891ZM72.6523 17.8516C72.5742 18.0859 72.5352 18.3333 72.5352 18.5938C72.5352 19.0104 72.5612 19.4531 72.6133 19.9219C72.6654 20.3646 72.7956 20.7682 73.0039 21.1328C73.2122 21.4974 73.5378 21.8099 73.9805 22.0703C74.4492 22.3047 75.0872 22.4219 75.8945 22.4219C76.0247 22.4219 76.1549 22.4219 76.2852 22.4219C76.4154 22.3958 76.5456 22.3698 76.6758 22.3438C76.7539 22.0052 76.819 21.7057 76.8711 21.4453C76.9492 21.1589 76.9883 20.9115 76.9883 20.7031C77.0404 20.2083 77.0404 19.7005 76.9883 19.1797C76.9362 18.6589 76.832 18.1901 76.6758 17.7734C76.5456 17.3307 76.3633 16.9792 76.1289 16.7188C75.9206 16.4323 75.6602 16.2891 75.3477 16.2891C74.8529 16.2891 74.3711 16.4323 73.9023 16.7188C73.4596 16.9792 73.043 17.3568 72.6523 17.8516ZM70.1523 24.7266C70.1523 25.1953 70.1784 25.6641 70.2305 26.1328C70.2826 26.5755 70.3867 26.9792 70.543 27.3438C70.6992 27.6823 70.9076 27.9688 71.168 28.2031C71.4284 28.4115 71.7669 28.5156 72.1836 28.5156C72.6523 28.5156 73.082 28.4115 73.4727 28.2031C73.8633 27.9688 74.2148 27.6823 74.5273 27.3438C74.8398 26.9792 75.1133 26.5755 75.3477 26.1328C75.6081 25.6641 75.8294 25.1823 76.0117 24.6875C75.8294 24.7135 75.6471 24.7396 75.4648 24.7656C75.3086 24.7656 75.1263 24.7656 74.918 24.7656C73.9284 24.7656 73.069 24.4792 72.3398 23.9062C71.6367 23.3073 71.0898 22.5521 70.6992 21.6406C70.543 22.1875 70.4128 22.7214 70.3086 23.2422C70.2044 23.763 70.1523 24.2578 70.1523 24.7266ZM101.637 28.2031C101.637 27.6562 101.689 27.0312 101.793 26.3281C101.923 25.625 102.079 24.9089 102.262 24.1797C102.444 23.4245 102.626 22.6953 102.809 21.9922C102.991 21.2891 103.147 20.6641 103.277 20.1172C103.434 19.4401 103.421 18.9193 103.238 18.5547C103.056 18.1901 102.743 18.0078 102.301 18.0078C102.092 18.0078 101.676 18.1901 101.051 18.5547C100.452 18.9193 99.7878 19.5573 99.0586 20.4688C98.3555 21.3542 97.6523 22.5651 96.9492 24.1016C96.2721 25.612 95.7383 27.5391 95.3477 29.8828C94.8529 30.1432 94.3841 30.3125 93.9414 30.3906C93.707 30.4427 93.4987 30.4818 93.3164 30.5078C92.7956 30.5339 92.457 30.4427 92.3008 30.2344C92.1445 30.0521 92.1706 29.5833 92.3789 28.8281C92.4831 28.4635 92.6654 27.8776 92.9258 27.0703C93.2122 26.263 93.4857 25.3906 93.7461 24.4531C94.0065 23.4896 94.2279 22.5391 94.4102 21.6016C94.6185 20.638 94.7227 19.8047 94.7227 19.1016C94.7227 18.6068 94.6315 18.2682 94.4492 18.0859C94.293 17.9036 94.0586 17.8125 93.7461 17.8125C93.5117 17.8125 93.1211 17.9427 92.5742 18.2031C92.0273 18.4635 91.4154 18.9714 90.7383 19.7266C90.0612 20.4818 89.3841 21.5365 88.707 22.8906C88.056 24.2188 87.4961 25.9505 87.0273 28.0859V28.0078C86.9753 28.2161 86.9232 28.4245 86.8711 28.6328C86.819 28.8151 86.7799 29.0104 86.7539 29.2188C86.7279 29.4271 86.6888 29.6224 86.6367 29.8047L84.6836 30.6641C84.5534 30.7161 84.3841 30.7552 84.1758 30.7812C83.9935 30.8073 83.8112 30.7682 83.6289 30.6641C83.4727 30.5859 83.3555 30.4036 83.2773 30.1172C83.1992 29.8307 83.2253 29.401 83.3555 28.8281L85.8164 18.6328C85.8945 18.2943 85.9596 17.9688 86.0117 17.6562C86.0638 17.3698 86.0898 17.0964 86.0898 16.8359C86.1159 16.5495 86.1029 16.3151 86.0508 16.1328C86.4935 15.9245 86.8841 15.7682 87.2227 15.6641C87.5612 15.5599 87.8346 15.4818 88.043 15.4297C88.3034 15.3516 88.5247 15.3125 88.707 15.3125C89.5404 15.3125 89.8138 16.0286 89.5273 17.4609C89.4232 17.8776 89.2669 18.4896 89.0586 19.2969C89.5534 18.6719 90.0742 18.0859 90.6211 17.5391C91.194 16.9661 91.7669 16.4583 92.3398 16.0156C92.9128 15.5729 93.4857 15.2214 94.0586 14.9609C94.6576 14.7005 95.2435 14.5703 95.8164 14.5703C96.2591 14.5703 96.6237 14.7005 96.9102 14.9609C97.2227 15.2214 97.457 15.5729 97.6133 16.0156C97.7956 16.4323 97.8997 16.9401 97.9258 17.5391C97.9518 18.112 97.9258 18.7109 97.8477 19.3359C98.2643 18.7891 98.7201 18.2422 99.2148 17.6953C99.7357 17.1224 100.27 16.6146 100.816 16.1719C101.389 15.7292 101.975 15.3646 102.574 15.0781C103.173 14.7917 103.772 14.6484 104.371 14.6484C105.074 14.6484 105.608 14.8568 105.973 15.2734C106.363 15.6901 106.624 16.224 106.754 16.875C106.91 17.526 106.949 18.2292 106.871 18.9844C106.819 19.7396 106.715 20.4688 106.559 21.1719L105.23 26.4453C104.944 27.7474 105.217 28.3984 106.051 28.3984C106.702 28.3984 107.418 28.0859 108.199 27.4609C108.98 26.8359 109.736 26.0938 110.465 25.2344C111.22 24.375 111.923 23.4896 112.574 22.5781C113.225 21.6667 113.772 20.9375 114.215 20.3906C114.371 20.2083 114.527 20.1042 114.684 20.0781C114.866 20.0521 115.009 20.0911 115.113 20.1953C115.243 20.2734 115.309 20.4167 115.309 20.625C115.335 20.8333 115.27 21.0938 115.113 21.4062C114.592 22.3177 113.954 23.3333 113.199 24.4531C112.444 25.5469 111.611 26.5755 110.699 27.5391C109.814 28.5026 108.863 29.3099 107.848 29.9609C106.832 30.612 105.777 30.9375 104.684 30.9375C104.319 30.9375 103.954 30.8984 103.59 30.8203C103.251 30.7422 102.926 30.599 102.613 30.3906C102.327 30.1823 102.092 29.9089 101.91 29.5703C101.728 29.2057 101.637 28.75 101.637 28.2031Z" fill="black"/>
</svg>
