<svg width="196" height="43" viewBox="0 0 196 43" fill="none" xmlns="http://www.w3.org/2000/svg">
<path d="M19.0645 23.6953C18.9238 25.2656 18.4551 26.6719 17.6582 27.9141C16.8613 29.1562 15.8418 30.1992 14.5996 31.043C13.3809 31.9102 11.998 32.5664 10.4512 33.0117C8.9043 33.457 7.31055 33.6797 5.66992 33.6797C5.06055 33.6797 4.48633 33.6328 3.94727 33.5391C3.43164 33.4688 2.96289 33.375 2.54102 33.2578C2.11914 33.1406 1.75586 33.0234 1.45117 32.9062C1.16992 32.8125 0.970703 32.7305 0.853516 32.6602C0.642578 32.543 0.466797 32.3906 0.326172 32.2031C0.208984 32.0391 0.138672 31.793 0.115234 31.4648C0.0917969 31.2773 0.0800781 31.125 0.0800781 31.0078C0.0800781 30.9141 0.0917969 30.8086 0.115234 30.6914C0.138672 30.5742 0.185547 30.4102 0.255859 30.1992C0.302734 30.0117 0.373047 29.7422 0.466797 29.3906C0.513672 29.1797 0.689453 28.5117 0.994141 27.3867C1.32227 26.2852 1.70898 24.9375 2.1543 23.3438C2.59961 21.7266 3.08008 19.9805 3.5957 18.1055C4.13477 16.2305 4.65039 14.4141 5.14258 12.6562C5.63477 10.8984 6.08008 9.31641 6.47852 7.91016C6.87695 6.48047 7.16992 5.42578 7.35742 4.74609C7.0293 4.98047 6.70117 5.22656 6.37305 5.48438C6.06836 5.74219 5.75195 6.02344 5.42383 6.32812C5.07227 6.65625 4.7207 6.77344 4.36914 6.67969C4.04102 6.5625 3.80664 6.26953 3.66602 5.80078C3.61914 5.56641 3.58398 5.32031 3.56055 5.0625C3.53711 4.85156 3.53711 4.61719 3.56055 4.35938C3.60742 4.07812 3.70117 3.80859 3.8418 3.55078C4.61523 3.08203 5.36523 2.68359 6.0918 2.35547C6.8418 2.02734 7.55664 1.73438 8.23633 1.47656C8.37695 1.07812 8.5293 0.773438 8.69336 0.5625C8.88086 0.351562 9.06836 0.210938 9.25586 0.140625C9.44336 0.0703125 9.64258 0.046875 9.85352 0.0703125C10.0645 0.09375 10.2871 0.128906 10.5215 0.175781C11.0371 0.292969 11.377 0.457031 11.541 0.667969C11.8691 0.621094 12.1855 0.585937 12.4902 0.5625C12.7949 0.539063 13.1113 0.527344 13.4395 0.527344C14.7988 0.527344 15.9824 0.703125 16.9902 1.05469C17.998 1.40625 18.8184 1.88672 19.4512 2.49609C20.1074 3.08203 20.5762 3.77344 20.8574 4.57031C21.1387 5.36719 21.2441 6.21094 21.1738 7.10156C21.1035 7.875 20.8926 8.68359 20.541 9.52734C20.2129 10.3477 19.7676 11.168 19.2051 11.9883C18.6426 12.7852 17.9863 13.5703 17.2363 14.3438C16.4863 15.0938 15.6543 15.7852 14.7402 16.418C15.4668 16.8398 16.1113 17.332 16.6738 17.8945C17.2363 18.457 17.7051 19.0664 18.0801 19.7227C18.4551 20.3789 18.7246 21.0469 18.8887 21.7266C19.0527 22.4062 19.1113 23.0625 19.0645 23.6953ZM7.42773 15.082C7.38086 15.3164 7.32227 15.5508 7.25195 15.7852C7.20508 16.0195 7.14648 16.2656 7.07617 16.5234C7.35742 16.2188 7.82617 15.9375 8.48242 15.6797C9.16211 15.4219 9.80664 15.293 10.416 15.293C10.7441 15.293 11.0605 15.3164 11.3652 15.3633C11.6699 15.3867 11.9629 15.4219 12.2441 15.4688C12.9004 15.0469 13.5332 14.5078 14.1426 13.8516C14.752 13.1719 15.2793 12.457 15.7246 11.707C16.1934 10.9336 16.5684 10.1484 16.8496 9.35156C17.1543 8.55469 17.3418 7.81641 17.4121 7.13672C17.5527 5.51953 17.2715 4.32422 16.5684 3.55078C15.8887 2.75391 14.916 2.35547 13.6504 2.35547C12.8066 2.35547 11.9277 2.50781 11.0137 2.8125C10.8262 3.42188 10.5918 4.18359 10.3105 5.09766C10.0293 5.98828 9.72461 6.97266 9.39648 8.05078C9.0918 9.12891 8.76367 10.2656 8.41211 11.4609C8.06055 12.6562 7.73242 13.8633 7.42773 15.082ZM6.83008 17.4023C6.50195 18.668 6.17383 20.0391 5.8457 21.5156C5.54102 22.7812 5.21289 24.2578 4.86133 25.9453C4.50977 27.6094 4.13477 29.3906 3.73633 31.2891C3.87695 31.4062 4.06445 31.4883 4.29883 31.5352C4.5332 31.582 4.76758 31.6289 5.00195 31.6758C5.25977 31.7227 5.54102 31.7461 5.8457 31.7461C6.90039 31.7461 7.9668 31.5234 9.04492 31.0781C10.1465 30.6562 11.1543 30.0469 12.0684 29.25C12.9824 28.4531 13.7441 27.4922 14.3535 26.3672C14.9863 25.2188 15.3613 23.9414 15.4785 22.5352C15.5254 21.9023 15.4785 21.3398 15.3379 20.8477C15.2207 20.332 15.0332 19.875 14.7754 19.4766C14.541 19.0547 14.2598 18.6914 13.9316 18.3867C13.627 18.0586 13.2988 17.7773 12.9473 17.543C11.8691 18.1289 10.6855 18.6211 9.39648 19.0195C8.97461 19.1367 8.61133 19.1602 8.30664 19.0898C8.00195 18.9961 7.74414 18.8672 7.5332 18.7031C7.32227 18.5156 7.1582 18.3047 7.04102 18.0703C6.92383 17.8359 6.85352 17.6133 6.83008 17.4023ZM20.7871 26.8242C20.623 27.082 20.4473 27.2461 20.2598 27.3164C20.0488 27.4102 19.873 27.4219 19.7324 27.3516C19.5684 27.3047 19.4629 27.1875 19.416 27C19.3691 26.8125 19.416 26.5781 19.5566 26.2969C19.627 26.1562 19.791 25.8398 20.0488 25.3477C20.2832 24.8555 20.5762 24.2695 20.9277 23.5898C21.2559 22.8867 21.6191 22.1367 22.0176 21.3398C22.416 20.5195 22.791 19.7461 23.1426 19.0195C23.5176 18.293 23.8574 17.6484 24.1621 17.0859C24.4668 16.5 24.6895 16.0781 24.8301 15.8203C24.5723 15.5859 24.3965 15.4219 24.3027 15.3281C24.209 15.2109 24.1387 14.9766 24.0918 14.625C24.0449 14.3203 24.1152 13.9219 24.3027 13.4297C24.4902 12.9375 24.7363 12.4688 25.041 12.0234C25.3457 11.5547 25.6855 11.1562 26.0605 10.8281C26.4355 10.5 26.7988 10.3359 27.1504 10.3359C27.8066 10.3359 28.2637 10.5469 28.5215 10.9688C28.8027 11.3906 28.9668 11.8242 29.0137 12.2695C29.0605 12.5742 29.0371 12.9609 28.9434 13.4297C28.8496 13.8984 28.6738 14.3203 28.416 14.6953C28.4863 14.7422 28.5801 14.8008 28.6973 14.8711C28.8145 14.918 29.002 14.9414 29.2598 14.9414C29.6348 14.9414 29.8926 14.918 30.0332 14.8711C30.1973 14.8242 30.4434 14.8008 30.7715 14.8008C31.1699 14.8008 31.498 14.9062 31.7559 15.1172C32.0137 15.3047 32.2246 15.5508 32.3887 15.8555C32.5527 16.1367 32.6699 16.4531 32.7402 16.8047C32.834 17.1328 32.8926 17.4375 32.916 17.7188C32.9863 18.3047 32.834 18.9141 32.459 19.5469C32.084 20.1797 31.627 20.8711 31.0879 21.6211C30.7598 22.0898 30.4316 22.6172 30.1035 23.2031C29.7754 23.7891 29.6348 24.3164 29.6816 24.7852C29.7285 25.0898 29.8105 25.3359 29.9277 25.5234C30.0449 25.7109 30.373 25.8047 30.9121 25.8047C31.3105 25.8047 31.7441 25.6641 32.2129 25.3828C32.7051 25.0781 33.1973 24.7031 33.6895 24.2578C34.2051 23.7891 34.709 23.2852 35.2012 22.7461C35.6934 22.1836 36.1504 21.6445 36.5723 21.1289C36.9941 20.5898 37.3457 20.1094 37.627 19.6875C37.9316 19.2656 38.1543 18.9609 38.2949 18.7734C38.4121 18.5859 38.5645 18.457 38.752 18.3867C38.9395 18.3164 39.1035 18.3164 39.2441 18.3867C39.3848 18.457 39.4668 18.5977 39.4902 18.8086C39.5371 19.0195 39.4551 19.3008 39.2441 19.6523C39.1035 19.8867 38.8574 20.2617 38.5059 20.7773C38.1777 21.293 37.7676 21.8672 37.2754 22.5C36.8066 23.1328 36.2793 23.7891 35.6934 24.4688C35.1074 25.125 34.4863 25.7344 33.8301 26.2969C33.1973 26.8359 32.5527 27.2812 31.8965 27.6328C31.2637 27.9844 30.6543 28.1602 30.0684 28.1602C29.459 28.1602 28.9551 28.043 28.5566 27.8086C28.1582 27.5742 27.8301 27.293 27.5723 26.9648C27.3379 26.6133 27.1621 26.2383 27.0449 25.8398C26.9512 25.418 26.916 25.0312 26.9395 24.6797C26.9629 24.3984 27.0332 24.1055 27.1504 23.8008C27.291 23.4727 27.4434 23.1445 27.6074 22.8164C27.7949 22.4648 27.9824 22.125 28.1699 21.7969C28.3809 21.4453 28.5684 21.1055 28.7324 20.7773C29.1309 20.0977 29.4473 19.5234 29.6816 19.0547C29.9395 18.5625 30.0684 18.1523 30.0684 17.8242C30.0684 17.6133 30.0215 17.4258 29.9277 17.2617C29.834 17.0977 29.6816 17.0156 29.4707 17.0156C29.3301 17.0156 29.2246 17.0273 29.1543 17.0508C29.1074 17.0508 29.0488 17.0508 28.9785 17.0508C28.9316 17.0508 28.8496 17.0625 28.7324 17.0859C28.6387 17.0859 28.4863 17.0859 28.2754 17.0859C27.9707 17.0859 27.7129 17.0391 27.502 16.9453C27.291 16.8516 27.0918 16.7812 26.9043 16.7344C26.8105 16.8984 26.5996 17.25 26.2715 17.7891C25.9434 18.3281 25.5566 18.9609 25.1113 19.6875C24.6895 20.4141 24.2324 21.1758 23.7402 21.9727C23.2715 22.7695 22.8262 23.5195 22.4043 24.2227C21.9824 24.9023 21.6309 25.4883 21.3496 25.9805C21.0449 26.4492 20.8574 26.7305 20.7871 26.8242ZM54.7832 20.0039C54.4551 20.4727 54.0332 21.0586 53.5176 21.7617C53.002 22.4414 52.4629 23.1328 51.9004 23.8359C51.3613 24.5156 50.8223 25.1484 50.2832 25.7344C49.7676 26.2969 49.334 26.6953 48.9824 26.9297C48.748 27.0703 48.4785 27.1875 48.1738 27.2812C47.8691 27.375 47.5527 27.4336 47.2246 27.457C46.9199 27.4805 46.627 27.457 46.3457 27.3867C46.0645 27.3398 45.8184 27.2461 45.6074 27.1055C45.3965 26.9414 45.2207 26.707 45.0801 26.4023C44.9629 26.1445 44.8457 25.8047 44.7285 25.3828C44.6348 24.9609 44.5996 24.4336 44.623 23.8008C44.0605 24.7383 43.4395 25.4648 42.7598 25.9805C42.0801 26.4727 41.4355 26.8359 40.8262 27.0703C40.123 27.3281 39.4199 27.4805 38.7168 27.5273C38.3887 27.5273 38.0371 27.4102 37.6621 27.1758C37.2871 26.9648 36.9707 26.625 36.7129 26.1562C36.4551 25.6641 36.291 25.043 36.2207 24.293C36.1504 23.5195 36.2441 22.6055 36.502 21.5508C36.8301 20.1211 37.3457 18.8203 38.0488 17.6484C38.7754 16.4766 39.5605 15.4805 40.4043 14.6602C41.248 13.8164 42.0801 13.1836 42.9004 12.7617C43.7207 12.3398 44.4004 12.1523 44.9395 12.1992C45.5723 12.3164 46.0879 12.5039 46.4863 12.7617C46.8145 12.9961 47.0254 13.3477 47.1191 13.8164C47.2363 14.2617 47.0488 14.8594 46.5566 15.6094C46.8848 15.5391 47.1543 15.4922 47.3652 15.4688C47.5996 15.4453 47.7754 15.4336 47.8926 15.4336C48.0332 15.4336 48.127 15.4453 48.1738 15.4688C48.1973 15.5156 48.209 15.6211 48.209 15.7852C48.209 15.9258 48.1738 16.1953 48.1035 16.5938C48.0332 16.9922 47.9277 17.5312 47.7871 18.2109C47.6465 18.8906 47.459 19.7695 47.2246 20.8477C47.1777 21.0586 47.1309 21.2578 47.084 21.4453C47.0605 21.6094 47.0254 21.7852 46.9785 21.9727C46.9551 22.1367 46.9199 22.3359 46.873 22.5703C46.8262 22.8047 46.7676 23.0977 46.6973 23.4492C46.6738 23.6602 46.6621 23.8945 46.6621 24.1523C46.6855 24.3867 46.7324 24.6094 46.8027 24.8203C46.873 25.0312 46.9785 25.207 47.1191 25.3477C47.2832 25.4648 47.5059 25.5234 47.7871 25.5234C48.0215 25.5234 48.3262 25.3828 48.7012 25.1016C49.0762 24.7969 49.4746 24.4219 49.8965 23.9766C50.3184 23.5078 50.752 23.0039 51.1973 22.4648C51.666 21.9023 52.0996 21.3633 52.498 20.8477C52.8965 20.332 53.248 19.875 53.5527 19.4766C53.8809 19.0781 54.1152 18.7852 54.2559 18.5977C54.4434 18.3867 54.6309 18.2695 54.8184 18.2461C55.0059 18.1992 55.1465 18.2461 55.2402 18.3867C55.334 18.5273 55.3457 18.7383 55.2754 19.0195C55.2285 19.3008 55.0645 19.6289 54.7832 20.0039ZM44.4824 21.5508C44.5996 21.082 44.7402 20.5312 44.9043 19.8984C45.0684 19.2656 45.209 18.6562 45.3262 18.0703C45.4434 17.4844 45.5254 17.0039 45.5723 16.6289C45.6426 16.2305 45.6309 16.043 45.5371 16.0664C45.4199 16.0898 45.291 16.125 45.1504 16.1719C45.0332 16.2188 44.8809 16.2539 44.6934 16.2773C44.5059 16.3008 44.3184 16.3359 44.1309 16.3828C44.3184 16.0078 44.4238 15.7031 44.4473 15.4688C44.4941 15.2109 44.5059 15.0117 44.4824 14.8711C44.459 14.707 44.4121 14.5781 44.3418 14.4844C44.084 14.2734 43.627 14.4492 42.9707 15.0117C42.3379 15.5508 41.5996 16.5586 40.7559 18.0352C40.4043 18.6445 40.123 19.3008 39.9121 20.0039C39.7012 20.6836 39.5488 21.3281 39.4551 21.9375C39.3848 22.5469 39.373 23.0859 39.4199 23.5547C39.4668 24 39.5605 24.293 39.7012 24.4336C39.959 24.6914 40.252 24.8203 40.5801 24.8203C40.9082 24.7969 41.2363 24.7031 41.5645 24.5391C41.916 24.3516 42.2559 24.1172 42.584 23.8359C42.9355 23.5547 43.2402 23.2617 43.498 22.957C43.7793 22.6523 44.002 22.3711 44.166 22.1133C44.3535 21.8555 44.459 21.668 44.4824 21.5508ZM62.8691 27.8789C62.3301 27.8789 61.8613 27.7734 61.4629 27.5625C61.0879 27.375 60.7832 27.1172 60.5488 26.7891C60.3145 26.4609 60.1621 26.0859 60.0918 25.6641C60.0215 25.2188 60.0449 24.75 60.1621 24.2578C60.2324 23.9297 60.3496 23.4961 60.5137 22.957C60.6777 22.3945 60.8418 21.7969 61.0059 21.1641C61.1934 20.5078 61.3574 19.8633 61.498 19.2305C61.6621 18.5742 61.7676 17.9883 61.8145 17.4727C61.8613 16.9336 61.8379 16.5 61.7441 16.1719C61.6504 15.8203 61.4512 15.6445 61.1465 15.6445C60.7715 15.6445 60.3848 15.7734 59.9863 16.0312C59.5879 16.2656 59.1777 16.5938 58.7559 17.0156C58.3574 17.4375 57.9473 17.9297 57.5254 18.4922C57.127 19.0312 56.7285 19.5938 56.3301 20.1797C56.1191 20.9766 55.9434 21.6797 55.8027 22.2891C55.6621 22.875 55.5332 23.4141 55.416 23.9062C55.3223 24.375 55.2285 24.7969 55.1348 25.1719C55.041 25.5234 54.959 25.8633 54.8887 26.1914C54.8184 26.4258 54.6074 26.6602 54.2559 26.8945C53.9043 27.1055 53.5293 27.2812 53.1309 27.4219C52.7324 27.5625 52.3926 27.6328 52.1113 27.6328C51.8066 27.6328 51.6777 27.5273 51.7246 27.3164C51.748 27.1758 51.8301 26.8594 51.9707 26.3672C52.0879 25.875 52.2402 25.3008 52.4277 24.6445C52.5918 23.9648 52.7676 23.25 52.9551 22.5C53.1426 21.75 53.3184 21.0352 53.4824 20.3555C53.5996 19.8164 53.7285 19.2188 53.8691 18.5625C53.9863 18 54.127 17.3438 54.291 16.5938C54.4785 15.8438 54.6895 15.0234 54.9238 14.1328C55.0879 13.9922 55.252 13.8867 55.416 13.8164C55.6035 13.7227 55.791 13.6523 55.9785 13.6055C56.166 13.5352 56.3652 13.4883 56.5762 13.4648C56.7637 13.4648 56.9512 13.4766 57.1387 13.5C57.3027 13.5234 57.4668 13.5703 57.6309 13.6406C57.8184 13.6875 57.9824 13.7695 58.123 13.8867C58.0527 14.0508 57.9707 14.2852 57.877 14.5898C57.7832 14.8711 57.6895 15.1758 57.5957 15.5039C57.502 15.8789 57.3848 16.2656 57.2441 16.6641C57.5488 16.2422 57.8887 15.8203 58.2637 15.3984C58.6621 14.9531 59.084 14.5547 59.5293 14.2031C59.998 13.8516 60.4902 13.5703 61.0059 13.3594C61.5215 13.125 62.0488 13.0078 62.5879 13.0078C63.0332 13.0078 63.4316 13.1367 63.7832 13.3945C64.1348 13.6523 64.4043 14.0156 64.5918 14.4844C64.8027 14.9297 64.9199 15.4688 64.9434 16.1016C64.9902 16.7344 64.9082 17.4258 64.6973 18.1758L64.3105 19.7227C64.1934 20.2148 64.041 20.8008 63.8535 21.4805C63.6895 22.1367 63.4785 22.8633 63.2207 23.6602C63.0801 24.1758 63.0215 24.6211 63.0449 24.9961C63.0918 25.3711 63.3262 25.5586 63.748 25.5586C64.1699 25.5586 64.6973 25.3008 65.3301 24.7852C65.9863 24.2695 66.6426 23.6484 67.2988 22.9219C67.9551 22.1953 68.5762 21.457 69.1621 20.707C69.748 19.9336 70.1934 19.3125 70.498 18.8438C70.709 18.5391 70.9082 18.3398 71.0957 18.2461C71.2832 18.1523 71.4238 18.1406 71.5176 18.2109C71.6348 18.2812 71.6934 18.4453 71.6934 18.7031C71.6934 18.9375 71.5996 19.2422 71.4121 19.6172C71.248 19.9453 70.9902 20.3789 70.6387 20.918C70.3105 21.457 69.9121 22.0312 69.4434 22.6406C68.9746 23.25 68.4707 23.8711 67.9316 24.5039C67.3926 25.1133 66.8301 25.6758 66.2441 26.1914C65.6582 26.6836 65.0723 27.082 64.4863 27.3867C63.9238 27.7148 63.3848 27.8789 62.8691 27.8789ZM80.2363 20.2852C80.1191 21.0117 80.002 21.7031 79.8848 22.3594C79.791 23.0156 79.7324 23.543 79.709 23.9414C79.6855 24.5273 79.791 24.9492 80.0254 25.207C80.2598 25.4648 80.5176 25.5938 80.7988 25.5938C81.127 25.5938 81.5254 25.4297 81.9941 25.1016C82.4863 24.7734 83.002 24.3633 83.541 23.8711C84.0801 23.3789 84.6191 22.8398 85.1582 22.2539C85.6973 21.668 86.1895 21.1172 86.6348 20.6016C87.1035 20.0625 87.4902 19.5938 87.7949 19.1953C88.123 18.7969 88.3457 18.5391 88.4629 18.4219C88.6035 18.2812 88.7441 18.1992 88.8848 18.1758C89.0488 18.1523 89.1777 18.1758 89.2715 18.2461C89.3652 18.3164 89.4121 18.4453 89.4121 18.6328C89.4121 18.8203 89.3184 19.0547 89.1309 19.3359C88.8496 19.7812 88.4863 20.3086 88.041 20.918C87.5957 21.5039 87.1035 22.1133 86.5645 22.7461C86.0254 23.3789 85.4512 24 84.8418 24.6094C84.2559 25.2188 83.6582 25.7578 83.0488 26.2266C82.4629 26.6953 81.8887 27.0703 81.3262 27.3516C80.7871 27.6562 80.2949 27.8086 79.8496 27.8086C79.5215 27.8086 79.2051 27.7148 78.9004 27.5273C78.6191 27.3398 78.3613 27.0938 78.127 26.7891C77.8926 26.4844 77.7051 26.1445 77.5645 25.7695C77.4473 25.3945 77.4004 25.0195 77.4238 24.6445C77.4473 24.4805 77.4824 24.1992 77.5293 23.8008C76.5449 24.9023 75.5488 25.7812 74.541 26.4375C73.5566 27.0703 72.6074 27.3867 71.6934 27.3867C71.3652 27.3867 71.0137 27.3047 70.6387 27.1406C70.2637 26.9766 69.9238 26.707 69.6191 26.332C69.3379 25.957 69.1035 25.4648 68.916 24.8555C68.7285 24.2461 68.6582 23.5078 68.7051 22.6406C68.7754 21.2812 69.0449 19.9922 69.5137 18.7734C69.9824 17.5547 70.5684 16.5 71.2715 15.6094C71.998 14.6953 72.8066 13.9805 73.6973 13.4648C74.6113 12.9258 75.5254 12.6562 76.4395 12.6562C76.8379 12.6562 77.2012 12.7617 77.5293 12.9727C77.8574 13.1602 78.1387 13.418 78.373 13.7461C78.6074 14.0508 78.7949 14.3906 78.9355 14.7656C79.0996 15.1406 79.2168 15.4922 79.2871 15.8203C79.4512 15.1406 79.6035 14.4727 79.7441 13.8164C79.8848 13.1602 80.0254 12.5391 80.166 11.9531C80.4004 11.0859 80.6465 10.1484 80.9043 9.14062C81.1387 8.27344 81.4082 7.27734 81.7129 6.15234C82.0176 5.02734 82.3574 3.84375 82.7324 2.60156C82.9668 2.41406 83.1895 2.27344 83.4004 2.17969C83.6113 2.08594 83.8105 2.01563 83.998 1.96875C84.209 1.89844 84.4082 1.86328 84.5957 1.86328C84.8301 1.86328 85.041 1.89844 85.2285 1.96875C85.416 2.01563 85.5684 2.16797 85.6855 2.42578C85.8262 2.66016 85.9199 3.02344 85.9668 3.51562C86.0137 4.00781 86.0137 4.67578 85.9668 5.51953C85.9199 6.55078 85.7324 7.67578 85.4043 8.89453C85.0996 10.1133 84.6895 11.3789 84.1738 12.6914C83.6582 13.9805 83.0605 15.2812 82.3809 16.5938C81.7246 17.8828 81.0098 19.1133 80.2363 20.2852ZM78.1621 20.7422C78.2559 20.2969 78.3379 19.8516 78.4082 19.4062C78.502 18.9609 78.6074 18.5039 78.7246 18.0352C78.6777 18.0586 78.6309 18.082 78.584 18.1055C78.5605 18.1289 78.5254 18.1523 78.4785 18.1758C78.2207 18.293 78.0449 18.293 77.9512 18.1758C77.8574 18.0352 77.8105 17.8242 77.8105 17.543C77.8105 17.4023 77.7988 17.1562 77.7754 16.8047C77.752 16.4297 77.6816 16.0547 77.5645 15.6797C77.4707 15.2812 77.3184 14.9414 77.1074 14.6602C76.8965 14.3555 76.6035 14.2031 76.2285 14.2031C75.6895 14.2031 75.1387 14.4844 74.5762 15.0469C74.0137 15.5859 73.4863 16.2539 72.9941 17.0508C72.502 17.8242 72.0918 18.6562 71.7637 19.5469C71.4355 20.4375 71.248 21.2344 71.2012 21.9375C71.1543 23.0625 71.2949 23.8711 71.623 24.3633C71.9512 24.8555 72.3965 25.1016 72.959 25.1016C73.3809 25.1016 73.8379 24.9375 74.3301 24.6094C74.8457 24.2812 75.3379 23.8828 75.8066 23.4141C76.2988 22.9453 76.7441 22.4648 77.1426 21.9727C77.5645 21.4805 77.9043 21.0703 78.1621 20.7422ZM97.3574 33.6445C96.7949 33.6445 96.4551 33.5742 96.3379 33.4336C96.1973 33.3164 96.1738 33.0703 96.2676 32.6953C96.291 32.5781 96.4082 32.0508 96.6191 31.1133C96.8301 30.1992 97.0879 29.0742 97.3926 27.7383C97.7207 26.4258 98.0605 24.9961 98.4121 23.4492C98.7871 21.9023 99.1387 20.4492 99.4668 19.0898C98.9746 19.1367 98.6113 19.1016 98.377 18.9844C98.1426 18.8438 98.0254 18.668 98.0254 18.457C98.0488 18.2227 98.1777 17.9883 98.4121 17.7539C98.6699 17.5195 99.0332 17.3203 99.502 17.1562C99.5957 17.1094 99.7363 17.0625 99.9238 17.0156C100.041 16.6172 100.146 16.207 100.24 15.7852C100.334 15.4336 100.428 15.0586 100.521 14.6602C100.615 14.2617 100.709 13.875 100.803 13.5L103.264 2.98828C103.404 2.44922 103.615 2.05078 103.896 1.79297C104.201 1.51172 104.752 1.27734 105.549 1.08984C106.205 0.925781 106.662 0.867187 106.92 0.914062C107.178 0.9375 107.295 1.00781 107.271 1.125C107.201 1.38281 107.025 2.00391 106.744 2.98828C106.463 3.97266 106.123 5.17969 105.725 6.60938C105.35 8.01562 104.939 9.57422 104.494 11.2852C104.049 12.9727 103.615 14.6484 103.193 16.3125C104.6 16.1016 106.311 15.9258 108.326 15.7852C109.1 15.6914 109.85 15.6328 110.576 15.6094C111.326 15.5859 112.041 15.5859 112.721 15.6094C113.049 14.3438 113.365 13.0781 113.67 11.8125C113.998 10.5469 114.303 9.375 114.584 8.29688C114.865 7.21875 115.111 6.26953 115.322 5.44922C115.557 4.60547 115.732 3.98438 115.85 3.58594C115.99 3.14063 116.119 2.77734 116.236 2.49609C116.377 2.21484 116.529 1.99219 116.693 1.82812C116.881 1.66406 117.092 1.54688 117.326 1.47656C117.561 1.40625 117.83 1.34766 118.135 1.30078C118.299 1.30078 118.498 1.28906 118.732 1.26562C118.92 1.26562 119.143 1.26562 119.4 1.26562C119.658 1.24219 119.951 1.25391 120.279 1.30078C119.389 3.69141 118.557 6.11719 117.783 8.57812C117.033 11.0156 116.33 13.3945 115.674 15.7148C116.096 15.7617 116.459 15.7969 116.764 15.8203C117.092 15.8438 117.35 15.8789 117.537 15.9258C118.1 16.0195 118.451 16.1719 118.592 16.3828C118.756 16.5938 118.709 16.8984 118.451 17.2969L118.029 17.8242C117.889 18.0117 117.713 18.2344 117.502 18.4922C117.291 18.7266 117.021 18.9961 116.693 19.3008C116.506 19.2305 116.307 19.1602 116.096 19.0898C115.908 19.0195 115.721 18.9492 115.533 18.8789C115.299 18.8086 115.076 18.7383 114.865 18.668C114.701 19.2305 114.549 19.7812 114.408 20.3203C114.268 20.8359 114.139 21.3633 114.021 21.9023C113.74 23.0508 113.471 24.2344 113.213 25.4531C113.002 26.5078 112.779 27.668 112.545 28.9336C112.334 30.2227 112.17 31.4883 112.053 32.7305C111.865 32.8242 111.678 32.8828 111.49 32.9062C111.303 32.9531 111.139 32.9883 110.998 33.0117C110.834 33.0352 110.67 33.0586 110.506 33.082H110.471H110.4H110.33C110.236 33.082 110.143 33.082 110.049 33.082C109.955 33.082 109.861 33.0586 109.768 33.0117C109.65 32.9883 109.533 32.9531 109.416 32.9062C109.299 32.8594 109.182 32.8125 109.064 32.7656C108.971 32.7422 108.865 32.6953 108.748 32.625C108.936 31.8516 109.076 31.125 109.17 30.4453C109.287 29.7656 109.369 29.168 109.416 28.6523C109.486 28.043 109.533 27.5039 109.557 27.0352C109.58 26.4258 109.51 25.7578 109.346 25.0312C109.205 24.3047 108.971 23.5898 108.643 22.8867C108.338 22.1836 107.951 21.5273 107.482 20.918C107.037 20.3086 106.521 19.793 105.936 19.3711C105.35 18.9727 104.787 18.7148 104.248 18.5977C103.732 18.4805 103.205 18.4453 102.666 18.4922C102.502 19.1953 102.35 19.875 102.209 20.5312C102.068 21.1875 101.951 21.8203 101.857 22.4297C101.6 23.7891 101.354 25.1133 101.119 26.4023C100.932 27.5039 100.732 28.6406 100.521 29.8125C100.334 31.0078 100.193 32.0273 100.1 32.8711C99.7246 33.0586 99.373 33.1992 99.0449 33.293C98.7168 33.4102 98.4238 33.4922 98.166 33.5391C97.8848 33.6094 97.6152 33.6445 97.3574 33.6445ZM111.279 18.0352C110.459 17.9414 109.674 17.8945 108.924 17.8945C108.197 17.8711 107.553 17.8594 106.99 17.8594C107.459 18.1172 107.869 18.457 108.221 18.8789C108.596 19.3008 108.982 19.7812 109.381 20.3203C109.756 20.8125 110.061 21.3516 110.295 21.9375C110.529 22.5234 110.729 23.0859 110.893 23.625C111.08 22.6406 111.279 21.6797 111.49 20.7422C111.701 19.8047 111.9 18.9258 112.088 18.1055C111.947 18.082 111.807 18.0703 111.666 18.0703C111.549 18.0469 111.42 18.0352 111.279 18.0352ZM127.662 6.29297C127.592 6.55078 127.451 6.80859 127.24 7.06641C127.053 7.30078 126.83 7.5 126.572 7.66406C126.338 7.80469 126.092 7.89844 125.834 7.94531C125.576 7.99219 125.365 7.94531 125.201 7.80469C124.709 7.42969 124.451 7.03125 124.428 6.60938C124.404 6.16406 124.51 5.75391 124.744 5.37891C124.979 4.98047 125.271 4.65234 125.623 4.39453C125.975 4.11328 126.279 3.94922 126.537 3.90234C126.795 3.85547 127.006 3.91406 127.17 4.07812C127.357 4.21875 127.498 4.41797 127.592 4.67578C127.686 4.91016 127.732 5.17969 127.732 5.48438C127.756 5.78906 127.732 6.05859 127.662 6.29297ZM122.811 13.7812C122.928 13.6406 123.15 13.5234 123.479 13.4297C123.807 13.3359 124.146 13.2656 124.498 13.2188C124.85 13.1484 125.166 13.1133 125.447 13.1133C125.752 13.0898 125.928 13.0898 125.975 13.1133C125.998 13.1367 125.939 13.3828 125.799 13.8516C125.658 14.3203 125.482 14.8711 125.271 15.5039C125.061 16.1367 124.838 16.793 124.604 17.4727C124.369 18.1289 124.193 18.668 124.076 19.0898C123.959 19.5117 123.818 19.9922 123.654 20.5312C123.49 21.0469 123.338 21.5625 123.197 22.0781C123.08 22.5703 122.998 23.0391 122.951 23.4844C122.904 23.9297 122.939 24.2695 123.057 24.5039C123.174 24.7852 123.303 24.9844 123.443 25.1016C123.584 25.1953 123.736 25.2422 123.9 25.2422C124.369 25.2422 124.955 24.9844 125.658 24.4688C126.385 23.9531 127.111 23.3438 127.838 22.6406C128.588 21.9141 129.279 21.1875 129.912 20.4609C130.545 19.7109 131.014 19.1133 131.318 18.668C131.506 18.4336 131.693 18.2812 131.881 18.2109C132.092 18.1406 132.256 18.1523 132.373 18.2461C132.514 18.3398 132.584 18.4922 132.584 18.7031C132.607 18.9141 132.537 19.1602 132.373 19.4414C131.998 20.0977 131.447 20.8828 130.721 21.7969C129.994 22.6875 129.221 23.5547 128.4 24.3984C127.58 25.2188 126.771 25.9219 125.975 26.5078C125.201 27.0938 124.568 27.3984 124.076 27.4219C123.678 27.4453 123.279 27.375 122.881 27.2109C122.506 27.0703 122.154 26.8711 121.826 26.6133C121.521 26.332 121.264 26.0156 121.053 25.6641C120.842 25.2891 120.725 24.9023 120.701 24.5039C120.631 23.918 120.631 23.1211 120.701 22.1133C120.771 21.082 120.9 20.0391 121.088 18.9844C121.275 17.9062 121.51 16.8867 121.791 15.9258C122.096 14.9648 122.436 14.25 122.811 13.7812ZM134.764 25.8047C134.904 25.8984 135.08 25.9453 135.291 25.9453C135.525 25.9453 135.748 25.8984 135.959 25.8047C136.193 25.7109 136.404 25.582 136.592 25.418C136.803 25.2539 136.955 25.043 137.049 24.7852C137.143 24.5273 137.143 24.1641 137.049 23.6953C136.955 23.2031 136.803 22.6875 136.592 22.1484C136.404 21.5859 136.193 21.0234 135.959 20.4609C135.725 19.8984 135.525 19.3828 135.361 18.9141C135.221 18.5625 135.104 18.2344 135.01 17.9297C134.916 17.6719 134.822 17.4258 134.729 17.1914C134.658 16.9336 134.6 16.7578 134.553 16.6641C134.436 16.8516 134.225 17.1562 133.92 17.5781C133.639 18 133.322 18.4453 132.971 18.9141C132.643 19.3594 132.326 19.7812 132.021 20.1797C131.717 20.5547 131.506 20.8125 131.389 20.9531C131.201 21.1641 131.014 21.293 130.826 21.3398C130.662 21.3633 130.521 21.3281 130.404 21.2344C130.287 21.1172 130.217 20.9648 130.193 20.7773C130.193 20.5664 130.287 20.3203 130.475 20.0391C130.615 19.8516 130.826 19.5586 131.107 19.1602C131.389 18.7383 131.67 18.3164 131.951 17.8945C132.232 17.4492 132.49 17.0625 132.725 16.7344C132.959 16.3828 133.088 16.1719 133.111 16.1016C133.158 15.9141 133.088 15.668 132.9 15.3633C132.736 15.0586 132.713 14.707 132.83 14.3086C132.924 13.9805 133.135 13.6055 133.463 13.1836C133.791 12.7383 134.178 12.3398 134.623 11.9883C135.068 11.6367 135.525 11.3789 135.994 11.2148C136.463 11.0273 136.885 11.0273 137.26 11.2148C137.564 11.4023 137.811 11.6133 137.998 11.8477C138.186 12.0586 138.256 12.2812 138.209 12.5156C138.162 12.6328 138.092 12.7852 137.998 12.9727C137.904 13.1602 137.764 13.3945 137.576 13.6758C137.389 13.9336 137.119 14.2734 136.768 14.6953C136.838 15.2344 136.932 15.7266 137.049 16.1719C137.189 16.6172 137.318 17.0039 137.436 17.332C137.576 17.7305 137.729 18.0938 137.893 18.4219C138.104 18.8438 138.326 19.2773 138.561 19.7227C138.795 20.168 139.006 20.6133 139.193 21.0586C139.381 21.4805 139.533 21.8789 139.65 22.2539C139.768 22.6289 139.803 22.9453 139.756 23.2031C139.686 23.6016 139.475 24.082 139.123 24.6445C138.795 25.207 138.373 25.7578 137.857 26.2969C137.365 26.8125 136.791 27.2578 136.135 27.6328C135.502 28.0078 134.834 28.1953 134.131 28.1953C133.639 28.1953 133.158 28.043 132.689 27.7383C132.244 27.4336 131.857 27.082 131.529 26.6836C131.225 26.2617 130.99 25.8516 130.826 25.4531C130.686 25.0547 130.674 24.75 130.791 24.5391C130.932 24.2578 131.061 24.0352 131.178 23.8711C131.295 23.707 131.471 23.5195 131.705 23.3086C131.799 23.2383 131.916 23.1562 132.057 23.0625C132.174 22.9922 132.338 22.9219 132.549 22.8516C132.76 22.7812 133.006 22.6992 133.287 22.6055C133.521 23.332 133.732 23.9062 133.92 24.3281C134.107 24.7266 134.26 25.043 134.377 25.2773C134.518 25.5352 134.646 25.7109 134.764 25.8047ZM155.436 18.1055C155.529 17.9648 155.646 17.8828 155.787 17.8594C155.951 17.8125 156.08 17.8242 156.174 17.8945C156.268 17.9648 156.314 18.082 156.314 18.2461C156.338 18.4102 156.279 18.6328 156.139 18.9141C155.67 19.8047 155.049 20.7656 154.275 21.7969C153.525 22.8281 152.729 23.8008 151.885 24.7148C151.041 25.6055 150.221 26.3438 149.424 26.9297C148.627 27.5156 147.959 27.8086 147.42 27.8086C146.646 27.8086 146.002 27.6562 145.486 27.3516C144.971 27.0469 144.561 26.6719 144.256 26.2266C143.975 25.7812 143.775 25.3008 143.658 24.7852C143.541 24.2461 143.506 23.7539 143.553 23.3086C143.576 22.9336 143.658 22.2656 143.799 21.3047C143.939 20.3203 144.127 19.1953 144.361 17.9297C144.596 16.6406 144.854 15.2695 145.135 13.8164C145.439 12.3398 145.756 10.9219 146.084 9.5625C145.686 9.60938 145.287 9.65625 144.889 9.70312C144.49 9.75 144.127 9.77344 143.799 9.77344C143.049 9.77344 142.346 9.69141 141.689 9.52734C141.01 9.33984 140.506 9.16406 140.178 9C139.99 8.90625 139.908 8.77734 139.932 8.61328C139.955 8.42578 140.025 8.25 140.143 8.08594C140.26 7.89844 140.412 7.74609 140.6 7.62891C140.764 7.48828 140.916 7.41797 141.057 7.41797C141.502 7.46484 141.982 7.51172 142.498 7.55859C143.014 7.58203 143.576 7.58203 144.186 7.55859C144.631 7.53516 145.053 7.5 145.451 7.45312C145.873 7.40625 146.283 7.34766 146.682 7.27734C146.986 6.15234 147.279 5.17969 147.561 4.35938C147.865 3.51562 148.135 2.92969 148.369 2.60156C148.439 2.48437 148.592 2.39062 148.826 2.32031C149.084 2.22656 149.354 2.16797 149.635 2.14453C149.916 2.09766 150.186 2.09766 150.443 2.14453C150.701 2.16797 150.889 2.25 151.006 2.39062C151.123 2.57813 151.17 3.05859 151.146 3.83203C151.123 4.60547 150.994 5.58984 150.76 6.78516C151.744 6.78516 152.611 6.84375 153.361 6.96094C154.135 7.05469 154.791 7.17188 155.33 7.3125C155.869 7.42969 156.303 7.55859 156.631 7.69922C156.959 7.81641 157.205 7.89844 157.369 7.94531C157.533 7.99219 157.615 8.10937 157.615 8.29688C157.639 8.48438 157.604 8.68359 157.51 8.89453C157.439 9.08203 157.311 9.24609 157.123 9.38672C156.936 9.52734 156.725 9.57422 156.49 9.52734C156.256 9.50391 155.986 9.45703 155.682 9.38672C155.4 9.31641 155.049 9.25781 154.627 9.21094C154.229 9.16406 153.748 9.11719 153.186 9.07031C152.623 9.02344 151.967 9 151.217 9C151.076 9 150.912 9.01172 150.725 9.03516C150.561 9.03516 150.385 9.03516 150.197 9.03516C150.104 9.41016 150.01 9.78516 149.916 10.1602C149.846 10.5117 149.74 10.8867 149.6 11.2852C149.295 12.2227 148.943 13.2422 148.545 14.3438C148.193 15.3047 147.771 16.4062 147.279 17.6484C146.787 18.8906 146.236 20.2148 145.627 21.6211C145.486 22.6289 145.498 23.4023 145.662 23.9414C145.85 24.457 146.072 24.832 146.33 25.0664C146.635 25.3242 147.01 25.4648 147.455 25.4883C147.807 25.5352 148.229 25.418 148.721 25.1367C149.236 24.832 149.764 24.4336 150.303 23.9414C150.842 23.4492 151.381 22.9102 151.92 22.3242C152.482 21.7383 152.998 21.1641 153.467 20.6016C153.936 20.0391 154.346 19.5352 154.697 19.0898C155.049 18.6211 155.295 18.293 155.436 18.1055ZM163.732 21.4102C163.498 22.3008 163.182 23.1328 162.783 23.9062C162.385 24.6797 161.904 25.3477 161.342 25.9102C160.803 26.4727 160.182 26.9062 159.479 27.2109C158.799 27.5391 158.049 27.7031 157.229 27.7031C156.268 27.7031 155.506 27.4922 154.943 27.0703C154.404 26.6719 153.994 26.168 153.713 25.5586C153.455 24.9492 153.303 24.2812 153.256 23.5547C153.186 22.8281 153.15 22.1484 153.15 21.5156C153.15 21.0703 153.209 20.5781 153.326 20.0391C153.42 19.5 153.561 18.9492 153.748 18.3867C153.936 17.8242 154.17 17.2617 154.451 16.6992C154.756 16.1367 155.107 15.6211 155.506 15.1523C155.646 14.7539 155.857 14.4023 156.139 14.0977C156.443 13.793 156.783 13.5469 157.158 13.3594C157.557 13.1484 157.979 12.9961 158.424 12.9023C158.869 12.7852 159.303 12.7266 159.725 12.7266C159.795 12.7266 159.854 12.7383 159.9 12.7617C159.971 12.7852 160.041 12.8086 160.111 12.832C160.416 12.8555 160.791 12.9727 161.236 13.1836C161.705 13.3945 162.15 13.7109 162.572 14.1328C163.018 14.5547 163.393 15.0938 163.697 15.75C164.002 16.3828 164.154 17.1562 164.154 18.0703C164.154 18.2578 164.143 18.4922 164.119 18.7734C164.096 19.0312 164.072 19.2539 164.049 19.4414C164.588 19.2305 165.15 18.9727 165.736 18.668C166.322 18.3633 166.885 18.0469 167.424 17.7188C167.986 17.3672 168.502 17.0156 168.971 16.6641C169.439 16.3125 169.814 15.9961 170.096 15.7148C170.33 15.5039 170.529 15.3867 170.693 15.3633C170.857 15.3398 170.975 15.3867 171.045 15.5039C171.115 15.6211 171.127 15.7852 171.08 15.9961C171.033 16.207 170.904 16.4414 170.693 16.6992C170.576 16.8398 170.271 17.1211 169.779 17.543C169.311 17.9648 168.748 18.4219 168.092 18.9141C167.436 19.4062 166.721 19.8867 165.947 20.3555C165.174 20.8242 164.436 21.1758 163.732 21.4102ZM157.791 16.0664C157.721 16.2773 157.686 16.5 157.686 16.7344C157.686 17.1094 157.709 17.5078 157.756 17.9297C157.803 18.3281 157.92 18.6914 158.107 19.0195C158.295 19.3477 158.588 19.6289 158.986 19.8633C159.408 20.0742 159.982 20.1797 160.709 20.1797C160.826 20.1797 160.943 20.1797 161.061 20.1797C161.178 20.1562 161.295 20.1328 161.412 20.1094C161.482 19.8047 161.541 19.5352 161.588 19.3008C161.658 19.043 161.693 18.8203 161.693 18.6328C161.74 18.1875 161.74 17.7305 161.693 17.2617C161.646 16.793 161.553 16.3711 161.412 15.9961C161.295 15.5977 161.131 15.2812 160.92 15.0469C160.732 14.7891 160.498 14.6602 160.217 14.6602C159.771 14.6602 159.338 14.7891 158.916 15.0469C158.518 15.2812 158.143 15.6211 157.791 16.0664ZM155.541 22.2539C155.541 22.6758 155.564 23.0977 155.611 23.5195C155.658 23.918 155.752 24.2812 155.893 24.6094C156.033 24.9141 156.221 25.1719 156.455 25.3828C156.689 25.5703 156.994 25.6641 157.369 25.6641C157.791 25.6641 158.178 25.5703 158.529 25.3828C158.881 25.1719 159.197 24.9141 159.479 24.6094C159.76 24.2812 160.006 23.918 160.217 23.5195C160.451 23.0977 160.65 22.6641 160.814 22.2188C160.65 22.2422 160.486 22.2656 160.322 22.2891C160.182 22.2891 160.018 22.2891 159.83 22.2891C158.939 22.2891 158.166 22.0312 157.51 21.5156C156.877 20.9766 156.385 20.2969 156.033 19.4766C155.893 19.9688 155.775 20.4492 155.682 20.918C155.588 21.3867 155.541 21.832 155.541 22.2539ZM166.158 26.8242C165.994 27.082 165.818 27.2461 165.631 27.3164C165.42 27.4102 165.244 27.4219 165.104 27.3516C164.939 27.3047 164.834 27.1875 164.787 27C164.74 26.8125 164.787 26.5781 164.928 26.2969C164.998 26.1562 165.162 25.8398 165.42 25.3477C165.654 24.8555 165.947 24.2695 166.299 23.5898C166.627 22.8867 166.99 22.1367 167.389 21.3398C167.787 20.5195 168.162 19.7461 168.514 19.0195C168.889 18.293 169.229 17.6484 169.533 17.0859C169.838 16.5 170.061 16.0781 170.201 15.8203C169.943 15.5859 169.768 15.4219 169.674 15.3281C169.58 15.2109 169.51 14.9766 169.463 14.625C169.416 14.3203 169.486 13.9219 169.674 13.4297C169.861 12.9375 170.107 12.4688 170.412 12.0234C170.717 11.5547 171.057 11.1562 171.432 10.8281C171.807 10.5 172.17 10.3359 172.521 10.3359C173.178 10.3359 173.635 10.5469 173.893 10.9688C174.174 11.3906 174.338 11.8242 174.385 12.2695C174.432 12.5742 174.408 12.9609 174.314 13.4297C174.221 13.8984 174.045 14.3203 173.787 14.6953C173.857 14.7422 173.951 14.8008 174.068 14.8711C174.186 14.918 174.373 14.9414 174.631 14.9414C175.006 14.9414 175.264 14.918 175.404 14.8711C175.568 14.8242 175.814 14.8008 176.143 14.8008C176.541 14.8008 176.869 14.9062 177.127 15.1172C177.385 15.3047 177.596 15.5508 177.76 15.8555C177.924 16.1367 178.041 16.4531 178.111 16.8047C178.205 17.1328 178.264 17.4375 178.287 17.7188C178.357 18.3047 178.205 18.9141 177.83 19.5469C177.455 20.1797 176.998 20.8711 176.459 21.6211C176.131 22.0898 175.803 22.6172 175.475 23.2031C175.146 23.7891 175.006 24.3164 175.053 24.7852C175.1 25.0898 175.182 25.3359 175.299 25.5234C175.416 25.7109 175.744 25.8047 176.283 25.8047C176.682 25.8047 177.115 25.6641 177.584 25.3828C178.076 25.0781 178.568 24.7031 179.061 24.2578C179.576 23.7891 180.08 23.2852 180.572 22.7461C181.064 22.1836 181.521 21.6445 181.943 21.1289C182.365 20.5898 182.717 20.1094 182.998 19.6875C183.303 19.2656 183.525 18.9609 183.666 18.7734C183.783 18.5859 183.936 18.457 184.123 18.3867C184.311 18.3164 184.475 18.3164 184.615 18.3867C184.756 18.457 184.838 18.5977 184.861 18.8086C184.908 19.0195 184.826 19.3008 184.615 19.6523C184.475 19.8867 184.229 20.2617 183.877 20.7773C183.549 21.293 183.139 21.8672 182.646 22.5C182.178 23.1328 181.65 23.7891 181.064 24.4688C180.479 25.125 179.857 25.7344 179.201 26.2969C178.568 26.8359 177.924 27.2812 177.268 27.6328C176.635 27.9844 176.025 28.1602 175.439 28.1602C174.83 28.1602 174.326 28.043 173.928 27.8086C173.529 27.5742 173.201 27.293 172.943 26.9648C172.709 26.6133 172.533 26.2383 172.416 25.8398C172.322 25.418 172.287 25.0312 172.311 24.6797C172.334 24.3984 172.404 24.1055 172.521 23.8008C172.662 23.4727 172.814 23.1445 172.979 22.8164C173.166 22.4648 173.354 22.125 173.541 21.7969C173.752 21.4453 173.939 21.1055 174.104 20.7773C174.502 20.0977 174.818 19.5234 175.053 19.0547C175.311 18.5625 175.439 18.1523 175.439 17.8242C175.439 17.6133 175.393 17.4258 175.299 17.2617C175.205 17.0977 175.053 17.0156 174.842 17.0156C174.701 17.0156 174.596 17.0273 174.525 17.0508C174.479 17.0508 174.42 17.0508 174.35 17.0508C174.303 17.0508 174.221 17.0625 174.104 17.0859C174.01 17.0859 173.857 17.0859 173.646 17.0859C173.342 17.0859 173.084 17.0391 172.873 16.9453C172.662 16.8516 172.463 16.7812 172.275 16.7344C172.182 16.8984 171.971 17.25 171.643 17.7891C171.314 18.3281 170.928 18.9609 170.482 19.6875C170.061 20.4141 169.604 21.1758 169.111 21.9727C168.643 22.7695 168.197 23.5195 167.775 24.2227C167.354 24.9023 167.002 25.4883 166.721 25.9805C166.416 26.4492 166.229 26.7305 166.158 26.8242ZM191.365 14.0625C191.67 13.8281 191.963 13.6523 192.244 13.5352C192.549 13.3945 192.818 13.3008 193.053 13.2539C193.311 13.1836 193.568 13.1602 193.826 13.1836C194.459 13.2305 194.846 13.4297 194.986 13.7812C195.15 14.1328 195.174 14.6953 195.057 15.4688C194.986 15.8672 194.846 16.3711 194.635 16.9805C194.424 17.5898 194.178 18.3398 193.896 19.2305C193.615 20.0977 193.311 21.0938 192.982 22.2188C192.678 23.3438 192.385 24.6094 192.104 26.0156C191.822 27.1641 191.518 28.4883 191.189 29.9883C190.908 31.3008 190.568 32.8828 190.17 34.7344C189.795 36.5859 189.385 38.707 188.939 41.0977C188.822 41.6836 188.564 42.0234 188.166 42.1172C187.791 42.2109 187.393 42.1641 186.971 41.9766C186.807 41.8828 186.654 41.7773 186.514 41.6602C186.396 41.543 186.268 41.4023 186.127 41.2383C185.986 41.0977 185.869 40.8984 185.775 40.6406C186.314 38.6719 186.783 36.8789 187.182 35.2617C187.604 33.6445 187.979 32.2383 188.307 31.043C188.658 29.6602 188.986 28.418 189.291 27.3164C189.408 26.8242 189.514 26.3438 189.607 25.875C189.725 25.3828 189.842 24.9023 189.959 24.4336C189.654 24.9258 189.326 25.3945 188.975 25.8398C188.623 26.2852 188.236 26.6719 187.814 27C187.393 27.3281 186.936 27.5742 186.443 27.7383C185.975 27.9258 185.482 27.9844 184.967 27.9141C183.701 27.75 182.799 27.2812 182.26 26.5078C181.744 25.7344 181.521 24.7266 181.592 23.4844C181.615 22.9922 181.686 22.4531 181.803 21.8672C181.92 21.2812 182.049 20.7188 182.189 20.1797C182.33 19.6406 182.459 19.1602 182.576 18.7383C182.717 18.293 182.822 17.9766 182.893 17.7891C183.174 16.8984 183.373 16.1367 183.49 15.5039C183.631 14.8711 183.537 14.3438 183.209 13.9219C183.537 13.7109 183.842 13.5703 184.123 13.5C184.428 13.4062 184.697 13.3359 184.932 13.2891C185.189 13.2656 185.447 13.2656 185.705 13.2891C186.338 13.3828 186.701 13.6172 186.795 13.9922C186.912 14.3672 186.877 14.9297 186.689 15.6797C186.596 16.0781 186.443 16.5938 186.232 17.2266C186.021 17.8359 185.799 18.4688 185.564 19.125C185.33 19.7812 185.119 20.3906 184.932 20.9531C184.744 21.4922 184.639 21.8789 184.615 22.1133C184.404 23.168 184.393 23.9883 184.58 24.5742C184.768 25.1367 185.178 25.418 185.811 25.418C186.115 25.418 186.455 25.2891 186.83 25.0312C187.205 24.75 187.58 24.3867 187.955 23.9414C188.354 23.4961 188.74 22.9922 189.115 22.4297C189.49 21.8438 189.83 21.2578 190.135 20.6719C190.463 20.0859 190.744 19.5117 190.979 18.9492C191.236 18.3867 191.424 17.8828 191.541 17.4375C191.705 16.5703 191.811 15.8906 191.857 15.3984C191.904 14.9062 191.74 14.4609 191.365 14.0625Z" fill="black"/>
</svg>
