<svg width="161" height="29" viewBox="0 0 161 29" fill="none" xmlns="http://www.w3.org/2000/svg">
<path d="M11.672 28.65C9.29203 28.65 7.22203 28.22 5.46203 27.36C3.70203 26.48 2.35203 25.24 1.41203 23.64C0.472031 22.04 0.00203134 20.18 0.00203134 18.06C0.00203134 15.12 0.552031 12.51 1.65203 10.23C2.77203 7.95 4.28203 6.19 6.18203 4.95C8.08203 3.69 10.192 3.06 12.512 3.06C14.672 3.06 16.312 3.62 17.432 4.74C18.552 5.84 19.112 7.3 19.112 9.12C19.112 10.34 18.892 11.32 18.452 12.06C18.032 12.8 17.422 13.17 16.622 13.17C16.062 13.17 15.622 13.04 15.302 12.78C14.982 12.52 14.822 12.14 14.822 11.64C14.822 11.46 14.862 11.13 14.942 10.65C15.062 10.05 15.122 9.57 15.122 9.21C15.122 7.39 14.152 6.48 12.212 6.48C10.892 6.48 9.63203 6.91 8.43203 7.77C7.23203 8.63 6.26203 9.9 5.52203 11.58C4.78203 13.24 4.41203 15.22 4.41203 17.52C4.41203 19.92 5.08203 21.78 6.42203 23.1C7.76203 24.4 9.74203 25.05 12.362 25.05C13.662 25.05 14.972 24.89 16.292 24.57C17.632 24.23 19.112 23.72 20.732 23.04C21.032 22.92 21.282 22.86 21.482 22.86C21.802 22.86 22.042 22.98 22.202 23.22C22.362 23.46 22.442 23.77 22.442 24.15C22.442 25.37 21.782 26.27 20.462 26.85C19.042 27.47 17.562 27.93 16.022 28.23C14.502 28.51 13.052 28.65 11.672 28.65ZM36.7384 21.81C36.9984 21.81 37.1984 21.93 37.3384 22.17C37.4984 22.41 37.5784 22.74 37.5784 23.16C37.5784 23.96 37.3884 24.58 37.0084 25.02C36.0884 26.08 35.1384 26.95 34.1584 27.63C33.1984 28.31 32.0984 28.65 30.8584 28.65C29.8384 28.65 29.0684 28.36 28.5484 27.78C28.0284 27.18 27.7684 26.32 27.7684 25.2C27.7684 24.64 27.9084 23.64 28.1884 22.2C28.4484 20.94 28.5784 20.07 28.5784 19.59C28.5784 19.27 28.4684 19.11 28.2484 19.11C27.9884 19.11 27.6184 19.45 27.1384 20.13C26.6584 20.79 26.1784 21.67 25.6984 22.77C25.2184 23.87 24.8284 25.03 24.5284 26.25C24.1484 27.85 23.2084 28.65 21.7084 28.65C21.1084 28.65 20.7084 28.44 20.5084 28.02C20.3284 27.58 20.2384 26.8 20.2384 25.68C20.2384 25.04 20.2484 24.53 20.2684 24.15L20.2984 21.75C20.2984 18.67 20.6084 15.46 21.2284 12.12C21.8684 8.78 22.7984 5.98 24.0184 3.72C25.2584 1.44 26.7384 0.299998 28.4584 0.299998C29.3784 0.299998 30.1184 0.699998 30.6784 1.5C31.2584 2.28 31.5484 3.3 31.5484 4.56C31.5484 6.58 30.9584 8.68 29.7784 10.86C28.5984 13.02 26.6784 15.55 24.0184 18.45C23.9584 19.49 23.9284 20.56 23.9284 21.66C24.5884 19.96 25.3184 18.58 26.1184 17.52C26.9384 16.44 27.7384 15.67 28.5184 15.21C29.3184 14.75 30.0484 14.52 30.7084 14.52C32.0084 14.52 32.6584 15.17 32.6584 16.47C32.6584 17.25 32.4384 18.66 31.9984 20.7C31.6184 22.44 31.4284 23.59 31.4284 24.15C31.4284 24.95 31.7184 25.35 32.2984 25.35C32.6984 25.35 33.1684 25.11 33.7084 24.63C34.2684 24.13 35.0084 23.33 35.9284 22.23C36.1684 21.95 36.4384 21.81 36.7384 21.81ZM27.8284 3.27C27.4684 3.27 27.0684 3.79 26.6284 4.83C26.1884 5.85 25.7584 7.24 25.3384 9C24.9384 10.74 24.6084 12.64 24.3484 14.7C25.5884 13.24 26.6084 11.65 27.4084 9.93C28.2284 8.21 28.6384 6.65 28.6384 5.25C28.6384 4.61 28.5684 4.12 28.4284 3.78C28.2884 3.44 28.0884 3.27 27.8284 3.27ZM38.207 28.65C37.307 28.65 36.567 28.24 35.987 27.42C35.427 26.58 35.147 25.54 35.147 24.3C35.147 22.8 35.247 21.43 35.447 20.19C35.647 18.93 35.977 17.6 36.437 16.2C36.637 15.6 36.917 15.17 37.277 14.91C37.637 14.65 38.207 14.52 38.987 14.52C39.427 14.52 39.727 14.59 39.887 14.73C40.067 14.87 40.157 15.08 40.157 15.36C40.157 15.52 40.047 16.06 39.827 16.98C39.627 17.72 39.467 18.39 39.347 18.99C38.947 21.09 38.747 22.49 38.747 23.19C38.747 23.61 38.797 23.91 38.897 24.09C38.997 24.25 39.157 24.33 39.377 24.33C39.677 24.33 40.047 24.03 40.487 23.43C40.947 22.83 41.427 21.92 41.927 20.7C42.447 19.48 42.947 17.98 43.427 16.2C43.587 15.6 43.827 15.17 44.147 14.91C44.487 14.65 44.987 14.52 45.647 14.52C46.107 14.52 46.427 14.58 46.607 14.7C46.787 14.8 46.877 15 46.877 15.3C46.877 15.8 46.627 17.17 46.127 19.41C45.567 21.97 45.287 23.55 45.287 24.15C45.287 24.53 45.367 24.83 45.527 25.05C45.687 25.25 45.897 25.35 46.157 25.35C46.557 25.35 47.027 25.11 47.567 24.63C48.127 24.13 48.867 23.33 49.787 22.23C50.027 21.95 50.297 21.81 50.597 21.81C50.857 21.81 51.057 21.93 51.197 22.17C51.357 22.41 51.437 22.74 51.437 23.16C51.437 23.96 51.247 24.58 50.867 25.02C50.007 26.08 49.077 26.95 48.077 27.63C47.097 28.31 45.977 28.65 44.717 28.65C43.757 28.65 43.047 28.28 42.587 27.54C42.147 26.8 41.927 25.76 41.927 24.42C41.587 25.78 41.077 26.83 40.397 27.57C39.717 28.29 38.987 28.65 38.207 28.65ZM54.7345 28.65C52.7745 28.65 51.2445 28.1 50.1445 27C49.0645 25.88 48.5245 24.41 48.5245 22.59C48.5245 20.97 48.8445 19.55 49.4845 18.33C50.1245 17.11 50.9545 16.17 51.9745 15.51C52.9945 14.85 54.0645 14.52 55.1845 14.52C56.2845 14.52 57.1345 14.85 57.7345 15.51C58.3545 16.15 58.6645 16.98 58.6645 18C58.6645 18.84 58.4745 19.55 58.0945 20.13C57.7345 20.71 57.2545 21 56.6545 21C56.2745 21 55.9645 20.91 55.7245 20.73C55.5045 20.55 55.3945 20.3 55.3945 19.98C55.3945 19.84 55.4145 19.68 55.4545 19.5C55.4945 19.32 55.5245 19.19 55.5445 19.11C55.6445 18.81 55.6945 18.53 55.6945 18.27C55.6945 18.01 55.6245 17.81 55.4845 17.67C55.3645 17.53 55.1845 17.46 54.9445 17.46C54.4845 17.46 54.0545 17.67 53.6545 18.09C53.2545 18.49 52.9345 19.04 52.6945 19.74C52.4545 20.44 52.3345 21.21 52.3345 22.05C52.3345 24.37 53.3445 25.53 55.3645 25.53C56.1845 25.53 57.0645 25.26 58.0045 24.72C58.9645 24.16 59.9045 23.33 60.8245 22.23C61.0645 21.95 61.3345 21.81 61.6345 21.81C61.8945 21.81 62.0945 21.93 62.2345 22.17C62.3945 22.41 62.4745 22.74 62.4745 23.16C62.4745 23.92 62.2845 24.54 61.9045 25.02C60.9645 26.18 59.8345 27.08 58.5145 27.72C57.2145 28.34 55.9545 28.65 54.7345 28.65ZM72.7994 25.38C73.6194 25.54 74.0294 25.99 74.0294 26.73C74.0294 27.23 73.7994 27.68 73.3394 28.08C72.8994 28.46 72.2594 28.65 71.4194 28.65C69.9794 28.65 68.7994 28.21 67.8794 27.33C66.9794 26.43 66.5294 25.26 66.5294 23.82C66.5294 23.04 66.9294 22.48 67.7294 22.14C68.6094 21.76 69.2394 21.36 69.6194 20.94C69.9994 20.5 70.1894 19.97 70.1894 19.35C70.1894 18.99 70.1094 18.72 69.9494 18.54C69.8094 18.36 69.6294 18.27 69.4094 18.27C68.8694 18.27 68.2694 18.66 67.6094 19.44C66.9694 20.22 66.3694 21.23 65.8094 22.47C65.2494 23.69 64.8094 24.95 64.4894 26.25C64.2694 27.19 64.0094 27.83 63.7094 28.17C63.4294 28.49 62.9794 28.65 62.3594 28.65C61.7394 28.65 61.2794 28.43 60.9794 27.99C60.6994 27.53 60.5094 26.83 60.4094 25.89C60.3094 24.95 60.2594 23.57 60.2594 21.75C60.2594 18.67 60.5694 15.46 61.1894 12.12C61.8294 8.78 62.7594 5.98 63.9794 3.72C65.2194 1.44 66.6994 0.299998 68.4194 0.299998C69.3394 0.299998 70.0794 0.699998 70.6394 1.5C71.2194 2.28 71.5094 3.3 71.5094 4.56C71.5094 6.58 70.9194 8.68 69.7394 10.86C68.5594 13.02 66.6394 15.55 63.9794 18.45C63.9194 19.49 63.8894 20.56 63.8894 21.66C64.8494 19.16 65.9494 17.35 67.1894 16.23C68.4294 15.09 69.5894 14.52 70.6694 14.52C71.6694 14.52 72.4694 14.86 73.0694 15.54C73.6894 16.22 73.9994 17.06 73.9994 18.06C73.9994 19.16 73.7194 20.17 73.1594 21.09C72.5994 22.01 71.6394 22.83 70.2794 23.55C70.3994 24.15 70.6394 24.57 70.9994 24.81C71.3794 25.03 71.9794 25.22 72.7994 25.38ZM67.7894 3.27C67.4294 3.27 67.0294 3.79 66.5894 4.83C66.1494 5.85 65.7194 7.24 65.2994 9C64.8994 10.74 64.5694 12.64 64.3094 14.7C65.5494 13.24 66.5694 11.65 67.3694 9.93C68.1894 8.21 68.5994 6.65 68.5994 5.25C68.5994 4.61 68.5294 4.12 68.3894 3.78C68.2494 3.44 68.0494 3.27 67.7894 3.27ZM107.423 3.6C108.043 3.72 108.503 3.93 108.803 4.23C109.123 4.53 109.283 4.88 109.283 5.28C109.283 5.94 109.093 6.42 108.713 6.72C108.353 7.02 107.773 7.14 106.973 7.08C105.173 6.94 103.763 6.85 102.743 6.81C101.743 6.75 100.423 6.71 98.7834 6.69C98.0434 10.37 97.3634 14.07 96.7434 17.79C96.5234 19.15 96.2934 20.73 96.0534 22.53C95.8134 24.31 95.6534 25.75 95.5734 26.85C95.5334 27.43 95.2934 27.88 94.8534 28.2C94.4134 28.5 93.8834 28.65 93.2634 28.65C92.6034 28.65 92.0934 28.49 91.7334 28.17C91.3734 27.85 91.1934 27.43 91.1934 26.91C91.1934 26.43 91.2634 25.64 91.4034 24.54C91.5634 23.42 91.7434 22.25 91.9434 21.03C92.1634 19.81 92.3334 18.75 92.4534 17.85C92.6734 16.33 92.9234 14.82 93.2034 13.32C93.4834 11.82 93.7634 10.4 94.0434 9.06C94.1034 8.76 94.1734 8.42 94.2534 8.04C94.3334 7.64 94.4234 7.2 94.5234 6.72C92.5634 6.78 91.0234 6.94 89.9034 7.2C88.7834 7.46 87.9834 7.83 87.5034 8.31C87.0434 8.77 86.8134 9.37 86.8134 10.11C86.8134 10.79 87.0134 11.44 87.4134 12.06C87.4934 12.2 87.5334 12.35 87.5334 12.51C87.5334 12.89 87.3034 13.25 86.8434 13.59C86.4034 13.91 85.9434 14.07 85.4634 14.07C85.1234 14.07 84.8434 13.97 84.6234 13.77C84.2234 13.43 83.8934 12.95 83.6334 12.33C83.3734 11.69 83.2434 10.97 83.2434 10.17C83.2434 8.47 83.7934 7.11 84.8934 6.09C86.0134 5.05 87.7034 4.29 89.9634 3.81C92.2434 3.33 95.1634 3.09 98.7234 3.09C100.923 3.09 102.673 3.13 103.973 3.21C105.293 3.29 106.443 3.42 107.423 3.6ZM105.4 28.65C104.16 28.65 103.17 28.2 102.43 27.3C101.69 26.4 101.32 25.22 101.32 23.76C101.32 22.16 101.69 20.65 102.43 19.23C103.17 17.79 104.15 16.64 105.37 15.78C106.61 14.9 107.92 14.46 109.3 14.46C109.74 14.46 110.03 14.55 110.17 14.73C110.33 14.89 110.46 15.19 110.56 15.63C110.98 15.55 111.42 15.51 111.88 15.51C112.86 15.51 113.35 15.86 113.35 16.56C113.35 16.98 113.2 17.98 112.9 19.56C112.44 21.86 112.21 23.46 112.21 24.36C112.21 24.66 112.28 24.9 112.42 25.08C112.58 25.26 112.78 25.35 113.02 25.35C113.4 25.35 113.86 25.11 114.4 24.63C114.94 24.13 115.67 23.33 116.59 22.23C116.83 21.95 117.1 21.81 117.4 21.81C117.66 21.81 117.86 21.93 118 22.17C118.16 22.41 118.24 22.74 118.24 23.16C118.24 23.96 118.05 24.58 117.67 25.02C116.85 26.04 115.98 26.9 115.06 27.6C114.14 28.3 113.25 28.65 112.39 28.65C111.73 28.65 111.12 28.43 110.56 27.99C110.02 27.53 109.61 26.91 109.33 26.13C108.29 27.81 106.98 28.65 105.4 28.65ZM106.48 25.62C106.92 25.62 107.34 25.36 107.74 24.84C108.14 24.32 108.43 23.63 108.61 22.77L109.72 17.25C108.88 17.27 108.1 17.59 107.38 18.21C106.68 18.81 106.12 19.61 105.7 20.61C105.28 21.61 105.07 22.67 105.07 23.79C105.07 24.41 105.19 24.87 105.43 25.17C105.69 25.47 106.04 25.62 106.48 25.62ZM119.731 12.54C118.891 12.54 118.261 12.35 117.841 11.97C117.421 11.57 117.211 11.02 117.211 10.32C117.211 9.62 117.481 9.04 118.021 8.58C118.581 8.1 119.271 7.86 120.091 7.86C120.831 7.86 121.431 8.04 121.891 8.4C122.351 8.76 122.581 9.27 122.581 9.93C122.581 10.73 122.321 11.37 121.801 11.85C121.281 12.31 120.591 12.54 119.731 12.54ZM119.491 28.65C118.191 28.65 117.241 28.19 116.641 27.27C116.061 26.35 115.771 25.13 115.771 23.61C115.771 22.71 115.881 21.56 116.101 20.16C116.341 18.74 116.641 17.42 117.001 16.2C117.181 15.56 117.421 15.12 117.721 14.88C118.021 14.64 118.501 14.52 119.161 14.52C120.181 14.52 120.691 14.86 120.691 15.54C120.691 16.04 120.501 17.2 120.121 19.02C119.641 21.22 119.401 22.71 119.401 23.49C119.401 24.09 119.481 24.55 119.641 24.87C119.801 25.19 120.071 25.35 120.451 25.35C120.811 25.35 121.261 25.1 121.801 24.6C122.341 24.1 123.061 23.31 123.961 22.23C124.201 21.95 124.471 21.81 124.771 21.81C125.031 21.81 125.231 21.93 125.371 22.17C125.531 22.41 125.611 22.74 125.611 23.16C125.611 23.96 125.421 24.58 125.041 25.02C123.061 27.44 121.211 28.65 119.491 28.65ZM134.554 21.81C134.814 21.81 135.014 21.93 135.154 22.17C135.314 22.41 135.394 22.74 135.394 23.16C135.394 23.96 135.204 24.58 134.824 25.02C133.964 26.08 133.024 26.95 132.004 27.63C131.004 28.31 129.864 28.65 128.584 28.65C126.824 28.65 125.514 27.85 124.654 26.25C123.814 24.65 123.394 22.58 123.394 20.04C123.394 17.6 123.704 14.82 124.324 11.7C124.964 8.58 125.894 5.9 127.114 3.66C128.354 1.42 129.824 0.299998 131.524 0.299998C132.484 0.299998 133.234 0.749998 133.774 1.65C134.334 2.53 134.614 3.8 134.614 5.46C134.614 7.84 133.954 10.6 132.634 13.74C131.314 16.88 129.524 19.99 127.264 23.07C127.404 23.89 127.634 24.48 127.954 24.84C128.274 25.18 128.694 25.35 129.214 25.35C130.034 25.35 130.754 25.12 131.374 24.66C131.994 24.18 132.784 23.37 133.744 22.23C133.984 21.95 134.254 21.81 134.554 21.81ZM130.864 3.27C130.404 3.27 129.884 4.1 129.304 5.76C128.724 7.42 128.214 9.48 127.774 11.94C127.334 14.4 127.094 16.76 127.054 19.02C128.474 16.68 129.604 14.34 130.444 12C131.284 9.64 131.704 7.49 131.704 5.55C131.704 4.03 131.424 3.27 130.864 3.27ZM148.269 19.29C148.529 19.29 148.729 19.42 148.869 19.68C149.009 19.94 149.079 20.27 149.079 20.67C149.079 21.63 148.789 22.2 148.209 22.38C147.009 22.8 145.689 23.04 144.249 23.1C143.869 24.78 143.119 26.13 141.999 27.15C140.879 28.15 139.609 28.65 138.189 28.65C136.989 28.65 135.959 28.36 135.099 27.78C134.259 27.2 133.619 26.43 133.179 25.47C132.739 24.51 132.519 23.47 132.519 22.35C132.519 20.83 132.809 19.48 133.389 18.3C133.969 17.1 134.769 16.17 135.789 15.51C136.809 14.83 137.939 14.49 139.179 14.49C140.699 14.49 141.919 15.02 142.839 16.08C143.779 17.12 144.329 18.41 144.489 19.95C145.429 19.89 146.549 19.69 147.849 19.35C148.009 19.31 148.149 19.29 148.269 19.29ZM138.429 25.47C139.069 25.47 139.619 25.21 140.079 24.69C140.559 24.17 140.879 23.42 141.039 22.44C140.419 22.02 139.939 21.47 139.599 20.79C139.279 20.11 139.119 19.39 139.119 18.63C139.119 18.31 139.149 17.99 139.209 17.67H139.059C138.259 17.67 137.589 18.06 137.049 18.84C136.529 19.6 136.269 20.68 136.269 22.08C136.269 23.18 136.479 24.02 136.899 24.6C137.339 25.18 137.849 25.47 138.429 25.47ZM158.624 18.63C159.064 18.63 159.434 18.79 159.734 19.11C160.054 19.41 160.214 19.79 160.214 20.25C160.214 20.51 160.154 20.79 160.034 21.09C159.714 21.83 159.264 22.45 158.684 22.95C158.104 23.45 157.464 23.7 156.764 23.7C156.204 23.7 155.724 23.5 155.324 23.1C154.944 22.7 154.754 22.16 154.754 21.48C154.754 21.1 154.774 20.69 154.814 20.25C154.854 19.93 154.874 19.71 154.874 19.59C154.874 19.43 154.834 19.31 154.754 19.23C154.694 19.15 154.614 19.11 154.514 19.11C154.234 19.11 153.854 19.45 153.374 20.13C152.894 20.79 152.414 21.67 151.934 22.77C151.454 23.87 151.064 25.03 150.764 26.25C150.544 27.21 150.294 27.85 150.014 28.17C149.734 28.49 149.274 28.65 148.634 28.65C147.874 28.65 147.334 28.25 147.014 27.45C146.714 26.65 146.564 25.37 146.564 23.61C146.564 21.01 146.934 18.54 147.674 16.2C147.854 15.62 148.144 15.2 148.544 14.94C148.964 14.66 149.544 14.52 150.284 14.52C150.684 14.52 150.964 14.57 151.124 14.67C151.284 14.77 151.364 14.96 151.364 15.24C151.364 15.56 151.214 16.28 150.914 17.4C150.714 18.2 150.554 18.9 150.434 19.5C150.314 20.1 150.214 20.84 150.134 21.72C150.794 20 151.534 18.6 152.354 17.52C153.174 16.44 153.974 15.67 154.754 15.21C155.534 14.75 156.244 14.52 156.884 14.52C157.464 14.52 157.904 14.69 158.204 15.03C158.524 15.35 158.684 15.83 158.684 16.47C158.684 16.85 158.574 17.57 158.354 18.63H158.624Z" fill="black"/>
</svg>
